<?xml version="1.0" encoding="UTF-8"?>
<svg width="22px" height="26px" viewBox="0 0 22 26" version="1.1" xmlns="http://www.w3.org/2000/svg" xmlns:xlink="http://www.w3.org/1999/xlink">
    <!-- Generator: Sketch 52.5 (67469) - http://www.bohemiancoding.com/sketch -->
    <title>windows</title>
    <desc>Created with Sketch.</desc>
    <g id="Page-1" stroke="none" stroke-width="1" fill="none" fill-rule="evenodd">
        <g id="draft-v1-copy" transform="translate(-932.000000, -6211.000000)" fill="#FFFFFF">
            <g id="Group-10" transform="translate(0.000000, 6012.000000)">
                <g id="Group-14" transform="translate(403.000000, 184.000000)">
                    <g id="Group-13-Copy" transform="translate(302.000000, 0.000000)">
                        <g id="mac" transform="translate(222.000000, 12.000000)">
                            <g id="apple" transform="translate(5.000000, 3.000000)">
                                <path d="M17.7098594,13.8148359 C17.6770547,10.5221289 20.3951719,8.94298437 20.5165898,8.86452734 C18.9893438,6.62964453 16.6102422,6.32348437 15.7624492,6.28808984 C13.73775,6.08308594 11.8117695,7.48012891 10.7842109,7.48012891 C9.75924219,7.48012891 8.17359766,6.31840625 6.49441406,6.34892578 C4.2875625,6.38173047 2.25270703,7.63211719 1.116375,9.60857422 C-1.1765,13.5872852 0.529191406,19.4814648 2.76397266,22.7082578 C3.85597266,24.2877578 5.15810547,26.06175 6.86775781,25.998375 C8.51413672,25.9326641 9.13671484,24.9330352 11.1271875,24.9330352 C13.1176094,24.9330352 13.677168,25.998375 15.4194219,25.9656719 C17.1910781,25.9327656 18.3134961,24.355957 19.3979805,22.7716328 C20.6519727,20.9392422 21.1683164,19.1651992 21.1987852,19.0741484 C21.1594297,19.0561719 17.7440859,17.747793 17.7098594,13.8148359 Z M14.4360938,4.15192578 C15.3435039,3.05103906 15.9559766,1.52369141 15.7889063,0 C14.4818477,0.05321875 12.8975234,0.870644531 11.9597461,1.96904297 C11.1183008,2.94343359 10.3817188,4.49860938 10.5791055,5.99183203 C12.0382539,6.10568359 13.5277188,5.25032422 14.4360938,4.15192578 Z" id="Shape" fill-rule="nonzero"></path>
                            </g>
                        </g>
                    </g>
                </g>
            </g>
        </g>
    </g>
</svg>