<?xml version="1.0" encoding="UTF-8"?>
<svg width="32px" height="32px" viewBox="0 0 32 32" version="1.1" xmlns="http://www.w3.org/2000/svg" xmlns:xlink="http://www.w3.org/1999/xlink">
    <!-- Generator: Sketch 53.2 (72643) - https://sketchapp.com -->
    <title>discord</title>
    <desc>Created with Sketch.</desc>
    <g id="discord" stroke="none" stroke-width="1" fill="none" fill-rule="evenodd">
        <g transform="translate(6.000000, 8.000000)" fill="#FFFFFF" fill-rule="nonzero" id="Shape">
            <path d="M17.5595898,1.06194965 L17.4967649,0.897879937 C17.4949259,0.89317176 17.4913969,0.889282397 17.486874,0.887184188 L17.3309052,0.81425863 C16.046971,0.213812618 14.2359339,0.0656585898 12.6336007,0 L10.828876,0 C10.8084976,0 10.8022847,0.0283514098 10.8206252,0.0374095317 L14.5276919,1.86730368 C14.548617,1.87759003 14.5370362,1.90962609 14.5145703,1.90358735 C12.8473744,1.45528708 11.1631303,1.22837345 9.50001004,1.22837345 C7.84225776,1.22837345 6.16348101,1.45390533 4.50140454,1.89933975 C4.47878957,1.9053785 4.46730812,1.8729842 4.4885314,1.86290256 L8.32567151,0.037614235 C8.34426052,0.0287608164 8.33819672,0.00010235166 8.31766929,0.00010235166 L6.36646905,0.00010235166 C4.76418559,0.0657609415 2.9530491,0.213914969 1.66916461,0.814360982 L1.51319583,0.88728654 C1.50867284,0.889384749 1.50509421,0.893222936 1.50330489,0.897982288 L1.44047999,1.062052 C0.126525042,4.49011614 -0.246845723,10.3097804 0.151326961,13.9555977 L0.172202323,14.1467906 L0.319920363,14.2647508 C2.37256492,15.9036056 5.11722773,16.7462157 6.84386871,16.9698029 L7.06713568,16.9987172 C7.13970241,17.0081336 7.20903844,16.9649412 7.23468531,16.8944209 L8.35847565,13.8030425 C8.39351643,13.7066784 8.33387254,13.6014609 8.2351619,13.5854941 L7.8903208,13.5297124 C6.68785023,13.3351931 4.98417215,12.8195454 3.54441829,11.4751564 C3.51370168,11.4464467 3.54332482,11.3948615 3.58219275,11.4097025 C3.69919419,11.4544813 3.82822381,11.5063736 3.96108058,11.5598012 C4.28663683,11.6907601 4.6233266,11.8261714 4.84301493,11.879906 C6.38699649,12.2578907 7.95269837,12.4495953 9.49991064,12.4495953 L9.49991064,12.4212439 L9.50314135,12.4212439 L9.50334016,12.4495953 C11.0474211,12.4495953 12.6130733,12.2579418 14.1569057,11.879906 C14.3766935,11.8261202 14.7133833,11.6907601 15.0389892,11.55975 C15.1717466,11.5063224 15.3007265,11.4544301 15.4176782,11.4097025 C15.4565462,11.3948615 15.4861693,11.4464979 15.4554527,11.4751564 C14.02052,12.813609 12.3147047,13.3279261 11.1095502,13.5222919 L10.7648085,13.5778689 C10.6660978,13.5937845 10.6063545,13.6988997 10.6413456,13.7952638 L11.7653348,16.8942673 C11.7909319,16.9648388 11.8603177,17.0080824 11.9328844,16.998666 L12.1563502,16.9697517 C13.8828918,16.7461645 16.6273558,15.9035544 18.68005,14.2646997 L18.8277681,14.1467394 L18.8486434,13.9555465 C19.2468658,10.3097804 18.873495,4.49006497 17.5595898,1.06194965 Z M5.83210948,9.47842899 C4.43629329,9.60657327 3.271796,8.4076771 3.39610381,6.97050627 C3.49143463,5.86884418 4.35299066,4.98165999 5.42300208,4.8834024 C6.81881827,4.75525812 7.98331557,5.95415429 7.85900775,7.39132512 C7.76362723,8.49298721 6.90207121,9.3801714 5.83210948,9.47842899 Z M13.5771671,9.47842899 C12.1813509,9.60657327 11.0168536,8.4076771 11.1411614,6.97050627 C11.2364923,5.86884418 12.0980483,4.98165999 13.1680597,4.8834024 C14.5638262,4.75525812 15.7283732,5.95415429 15.6040654,7.39132512 C15.5086849,8.49298721 14.6471288,9.3801714 13.5771671,9.47842899 Z"></path>
        </g>
    </g>
</svg>