<?xml version="1.0" encoding="UTF-8"?>
<svg width="32px" height="32px" viewBox="0 0 32 32" version="1.1" xmlns="http://www.w3.org/2000/svg" xmlns:xlink="http://www.w3.org/1999/xlink">
    <!-- Generator: Sketch 52.6 (67491) - http://www.bohemiancoding.com/sketch -->
    <title>download</title>
    <desc>Created with Sketch.</desc>
    <g id="download" stroke="none" stroke-width="1" fill="none" fill-rule="evenodd">
        <g transform="translate(8.000000, 8.000000)" fill="#000000" id="Path">
            <path d="M12.2186667,7.293 C12.1322667,7.114 11.9424,7 11.7333333,7 L9.6,7 L9.6,0.5 C9.6,0.224 9.36106667,0 9.06666667,0 L6.93333333,0 C6.63893333,0 6.4,0.224 6.4,0.5 L6.4,7 L4.26666667,7 C4.0576,7 3.86773333,7.115 3.78133333,7.293 C3.69386667,7.472 3.728,7.681 3.8656,7.829 L7.59893333,11.829 C7.70026667,11.938 7.8464,12 8,12 C8.1536,12 8.29973333,11.937 8.40106667,11.829 L12.1344,7.829 C12.2730667,7.682 12.3050667,7.472 12.2186667,7.293 Z"></path>
            <path d="M13.8666667,11 L13.8666667,14 L2.13333333,14 L2.13333333,11 L0,11 L0,15 C0,15.553 0.477866667,16 1.06666667,16 L14.9333333,16 C15.5232,16 16,15.553 16,15 L16,11 L13.8666667,11 Z"></path>
        </g>
    </g>
</svg>