<?xml version="1.0" encoding="UTF-8"?>
<svg width="32px" height="32px" viewBox="0 0 32 32" version="1.1" xmlns="http://www.w3.org/2000/svg" xmlns:xlink="http://www.w3.org/1999/xlink">
    <!-- Generator: Sketch 53.2 (72643) - https://sketchapp.com -->
    <title>github</title>
    <desc>Created with Sketch.</desc>
    <g id="github" stroke="none" stroke-width="1" fill="none" fill-rule="evenodd">
        <g id="Group" transform="translate(6.000000, 8.000000)" fill="#FFFFFF" fill-rule="nonzero">
            <g id="github-logo" transform="translate(0.666667, 0.000000)">
                <path d="M12.5586087,9.34317949 C11.8302029,9.34317949 11.2393623,10.1690256 11.2393623,11.1885128 C11.2393623,12.2082051 11.8302029,13.0344615 12.5586087,13.0344615 C13.2866087,13.0344615 13.8770435,12.2082051 13.8770435,11.1885128 C13.8772464,10.1690256 13.2866087,9.34317949 12.5586087,9.34317949 Z M17.1504058,4.53989744 C17.3005507,4.16533333 17.308058,2.03712821 16.5072174,0 C16.5072174,0 14.6695652,0.203692308 11.8892464,2.13251282 C11.3065217,1.96984615 10.3196232,1.88841026 9.33333333,1.88841026 C8.34704348,1.88841026 7.36055072,1.96964103 6.77721739,2.13230769 C3.99689855,0.203692308 2.15985507,0 2.15985507,0 C1.35881159,2.03712821 1.36591304,4.16533333 1.51626087,4.53989744 C0.575014493,5.57312821 0,6.81394872 0,8.50933333 C0,15.88 6.0482029,15.9981538 7.57501449,15.9981538 C7.92055072,15.9981538 8.60736232,15.9989744 9.33333333,16 C10.0593043,15.9989744 10.7465217,15.9981538 11.0916522,15.9981538 C12.6184638,15.9981538 18.6666667,15.88 18.6666667,8.50933333 C18.6666667,6.81394872 18.0916522,5.57312821 17.1504058,4.53989744 Z M9.36194203,15.0921026 L9.30492754,15.0921026 C5.47846377,15.0921026 2.49869565,14.6301538 2.49869565,10.8705641 C2.49869565,9.97025641 2.81298551,9.13415385 3.55965217,8.44041026 C4.80565217,7.28430769 6.91295652,7.89661538 9.30492754,7.89661538 C9.31405797,7.89661538 9.3237971,7.89641026 9.33353623,7.896 C9.34347826,7.89641026 9.35301449,7.89661538 9.36214493,7.89661538 C11.7541159,7.89661538 13.862029,7.28451282 15.1074203,8.44041026 C15.854087,9.13415385 16.1683768,9.97025641 16.1683768,10.8705641 C16.1681739,14.6301538 13.1884058,15.0921026 9.36194203,15.0921026 Z M6.10805797,9.34317949 C5.38005797,9.34317949 4.78962319,10.1690256 4.78962319,11.1885128 C4.78962319,12.2082051 5.38005797,13.0344615 6.10805797,13.0344615 C6.83686957,13.0344615 7.42730435,12.2082051 7.42730435,11.1885128 C7.42710145,10.1690256 6.83666667,9.34317949 6.10805797,9.34317949 Z" id="Shape"></path>
            </g>
        </g>
    </g>
</svg>