<?xml version="1.0" encoding="UTF-8"?>
<svg width="23px" height="26px" viewBox="0 0 23 26" version="1.1" xmlns="http://www.w3.org/2000/svg" xmlns:xlink="http://www.w3.org/1999/xlink">
    <!-- Generator: Sketch 52.5 (67469) - http://www.bohemiancoding.com/sketch -->
    <title>windows</title>
    <desc>Created with Sketch.</desc>
    <g id="Page-1" stroke="none" stroke-width="1" fill="none" fill-rule="evenodd">
        <g id="draft-v1-copy" transform="translate(-1234.000000, -6211.000000)" fill="#FFFFFF">
            <g id="Group-10" transform="translate(0.000000, 6012.000000)">
                <g id="Group-14" transform="translate(403.000000, 184.000000)">
                    <g id="Group-13-Copy-2" transform="translate(604.000000, 0.000000)">
                        <g id="linux" transform="translate(222.000000, 12.000000)">
                            <g transform="translate(5.000000, 3.000000)" id="XMLID_92_">
                                <path d="M21.5381443,20.8756984 C20.7757049,20.5634426 20.4495541,20.1490623 20.4810951,19.5307738 C20.5135738,18.809082 20.1041377,18.2804721 19.9096918,18.0716197 C20.0271607,17.6228852 20.3704459,16.0705574 19.9100328,14.722223 C19.4152656,13.2790098 17.9047082,11.0748066 16.3460721,8.90811148 C15.7080066,8.01831475 15.6778295,7.05111475 15.6429639,5.9311541 C15.6095475,4.8629377 15.5718689,3.65210492 14.9761705,2.30607213 C14.3284721,0.840439344 13.0288131,0 11.4102492,0 C10.4473967,0 9.45905574,0.300918033 8.6984918,0.825521311 C7.14104918,1.90038689 7.34691803,4.24388197 7.48314098,5.79459016 C7.50180984,6.0069377 7.51937049,6.20752131 7.5296,6.37878033 C7.62030164,7.89752131 7.53778361,8.69798033 7.4298623,8.94127213 C7.3600459,9.10025574 7.01633443,9.55274098 6.65259016,10.031823 C6.2764,10.5272721 5.84991475,11.0888721 5.50032131,11.6121967 C5.08321311,12.2419082 4.7464918,13.2044197 4.42085246,14.1352197 C4.18259016,14.8163344 3.95754098,15.4596852 3.73845902,15.8441443 C3.32322623,16.5837377 3.42654426,17.273377 3.51281311,17.5921115 C3.35561967,17.7013115 3.12852459,17.9163016 2.93680656,18.3215607 C2.7051082,18.8159869 2.23497705,19.0816984 1.25737705,19.2696656 C0.808131148,19.3615607 0.498347541,19.5504656 0.336380328,19.8310951 C0.10067541,20.2395082 0.229055738,20.7526885 0.346183607,21.1033902 C0.519232787,21.6189574 0.411396721,21.9452787 0.215331148,22.5377377 C0.17015082,22.6744721 0.118918033,22.8292787 0.0670032787,23.0000262 C-0.014747541,23.2694885 0.014747541,23.5144852 0.154465574,23.7281967 C0.523665574,24.2926098 1.60100328,24.491659 2.71005246,24.6225967 C3.37224262,24.7011934 4.09700328,24.9660525 4.79798033,25.2223016 C5.48480656,25.4732656 6.19499016,25.7328393 6.84055738,25.8116066 C6.93867541,25.8239672 7.03585574,25.8301902 7.12954098,25.8301902 C8.10424262,25.8301902 8.54462295,25.1834295 8.68425574,24.917718 C9.03436066,24.846282 10.2418689,24.617482 11.4863738,24.5867934 C12.728918,24.5513311 13.931141,24.7966689 14.2716984,24.8729639 C14.3787672,25.0778951 14.6610164,25.5459803 15.1109443,25.787141 C15.3582426,25.922341 15.7023803,25.9998295 16.0548721,25.9998295 C16.0549574,25.9998295 16.0548721,25.9998295 16.0549574,25.9998295 C16.4314033,25.9998295 17.1475541,25.9108328 17.7143541,25.3145377 C18.2797049,24.7154295 19.6922295,23.9506033 20.7237049,23.3921574 C20.9538689,23.2675279 21.1692,23.1509115 21.3580197,23.0456328 C21.9374361,22.7244262 22.2536131,22.2654623 22.2253967,21.7864656 C22.2018689,21.388623 21.9385443,21.0396262 21.5381443,20.8756984 Z M8.71119344,20.7603607 C8.63907541,20.2522951 7.98549508,19.7484066 7.22859672,19.1649836 C6.60971148,18.6878623 5.90822295,18.1471475 5.71497049,17.6892066 C5.31559344,16.7445115 5.63040656,15.0834098 6.17930492,14.2280525 C6.45055738,13.799777 6.67211148,13.1502885 6.88641967,12.5221967 C7.11777705,11.8439803 7.3570623,11.1427475 7.62464918,10.835777 C8.04840656,10.3565246 8.44002623,9.42401967 8.50941639,8.68911475 C8.90623607,9.06794754 9.52179672,9.54864918 10.0904721,9.54864918 C10.1780197,9.54864918 10.2630098,9.53722623 10.3442492,9.51429508 C10.7333115,9.40194098 11.3055672,9.07127213 11.8589836,8.7516 C12.3361049,8.47591475 12.9244721,8.1359541 13.1458557,8.10500984 C13.5254557,8.65007213 15.7311934,13.5313377 15.9565836,15.0989246 C16.134918,16.3392525 15.9465246,17.3645902 15.8518164,17.7661836 C15.7756066,17.7557836 15.6847344,17.7473443 15.589259,17.7473443 C14.9748918,17.7473443 14.8122426,18.0827016 14.7698754,18.2829443 C14.6609311,18.8032 14.649423,20.4667738 14.6482295,20.840577 C14.4260787,21.1228262 13.302623,22.4519803 11.6896852,22.6909246 C11.0326951,22.7864 10.4191803,22.8348197 9.86627541,22.8348197 C9.39367213,22.8348197 9.09207213,22.7983344 8.9668459,22.7793246 L8.15632787,21.8519344 C8.47591475,21.6941443 8.79541639,21.3611738 8.71119344,20.7603607 Z M9.73968525,5.46843934 C9.71436721,5.47935082 9.68947541,5.49102951 9.66500984,5.50347541 C9.6625377,5.44857705 9.65682623,5.39291148 9.6480459,5.33707541 C9.55956066,4.82773115 9.22181639,4.45801967 8.84511475,4.45801967 C8.81723934,4.45801967 8.78919344,4.46015082 8.75841967,4.46483934 C8.5343082,4.50217705 8.35853115,4.6705377 8.26220328,4.90922623 C8.34668197,4.38547541 8.64342295,3.9976918 8.99548852,3.9976918 C9.40893115,3.9976918 9.75818361,4.55485902 9.75818361,5.21432131 C9.75818361,5.29743607 9.75213115,5.38012459 9.73968525,5.46843934 Z M12.9522623,5.86116721 C12.9901115,5.74062951 13.0105705,5.61020328 13.0105705,5.47483279 C13.0105705,4.87691803 12.6312262,4.4084918 12.1469443,4.4084918 C11.673659,4.4084918 11.2886033,4.88680656 11.2886033,5.47483279 C11.2886033,5.51489836 11.2905639,5.55504918 11.2943148,5.59511475 C11.2692525,5.58548197 11.2447869,5.57610492 11.220918,5.56706885 C11.1664459,5.40211803 11.1389115,5.23000656 11.1389115,5.05431475 C11.1389115,4.33935738 11.5958295,3.75763934 12.1576,3.75763934 C12.7192852,3.75763934 13.1762885,4.33935738 13.1762885,5.05431475 C13.1762885,5.3517377 13.0941967,5.63560656 12.9522623,5.86116721 Z M12.5380525,7.25272131 C12.5299541,7.28886557 12.5127344,7.3048918 12.3222951,7.40394754 C12.2261377,7.45398689 12.1064525,7.51630164 11.9566754,7.60751475 L11.8565967,7.66812459 C11.4544066,7.91192787 10.5126951,8.48299016 10.2570426,8.5164918 C10.0833967,8.53984918 9.97598689,8.47250492 9.73448525,8.30840656 C9.68001311,8.27132459 9.6220459,8.23194098 9.56024262,8.19230164 C9.1248918,7.90664262 8.84485902,7.592 8.81323279,7.46899016 C8.95516721,7.35927869 9.30697705,7.08470164 9.48710164,6.9221377 C9.85272131,6.58217705 10.2206426,6.35371803 10.4027279,6.35371803 C10.4123607,6.35371803 10.4210557,6.3544 10.4300918,6.35610492 C10.644059,6.39386885 11.1718164,6.60451148 11.5572984,6.75829508 C11.7354623,6.82939016 11.8893311,6.89076721 11.9975934,6.92963934 C12.3386623,7.04676721 12.5164852,7.19662951 12.5380525,7.25272131 Z M15.6023869,23.14 C15.7947869,22.2721115 16.0164262,21.0914557 15.9805377,20.395423 C15.9722689,20.2372918 15.9582885,20.0651803 15.9447344,19.8987803 C15.9194164,19.5876328 15.881823,19.1251738 15.9206098,18.9880131 C15.928282,18.9844328 15.9368066,18.9813639 15.9462689,18.9787213 C15.9478885,19.3766492 16.0343279,20.1703738 16.6690689,20.4471672 C16.8582295,20.5296852 17.0744131,20.5714557 17.3115672,20.5714557 C17.9474164,20.5714557 18.6529115,20.259541 18.9418951,19.9705574 C19.1120459,19.8004066 19.2551738,19.5922361 19.355423,19.4273705 C19.3773311,19.4915607 19.3908,19.5754426 19.3837246,19.6835344 C19.3459607,20.2704525 19.6311934,21.0490885 20.1740393,21.3360262 L20.2530623,21.377541 C20.4464,21.4789836 20.9599213,21.7486164 20.9681902,21.8764852 C20.9681049,21.8765705 20.9638426,21.8915738 20.9352,21.9181705 C20.8065639,22.0357246 20.353823,22.2669115 19.916,22.4905115 C19.1393246,22.8870754 18.2589902,23.336577 17.8636197,23.7524066 C17.3069639,24.3382164 16.6773377,24.7317115 16.297141,24.7317115 C16.2513639,24.7317115 16.2096787,24.7259148 16.1725967,24.7141508 C15.7596656,24.5854295 15.4197902,23.9896459 15.6023869,23.14 Z M1.52735082,20.9259082 C1.48523934,20.7288197 1.45199344,20.5732459 1.48771148,20.4225311 C1.51362623,20.310859 2.06491148,20.1911738 2.30036066,20.1401115 C2.63137049,20.0682492 2.97371803,19.994 3.19757377,19.858118 C3.50028197,19.6747541 3.66420984,19.3365836 3.80878689,19.038223 C3.91346885,18.8224656 4.02156066,18.599377 4.15019672,18.5261508 C4.15744262,18.5218885 4.16852459,18.5169443 4.18966557,18.5169443 C4.43065574,18.5169443 4.93633443,19.0235607 5.22770492,19.4769836 C5.30161311,19.5912984 5.43851803,19.8203541 5.59690492,20.0855541 C6.07061639,20.8781705 6.71925246,21.963777 7.05801967,22.3276066 C7.36328525,22.6546951 7.85745574,23.2835541 7.73589508,23.8229049 C7.64689836,24.241377 7.17310164,24.5816787 7.06134426,24.6569508 C7.02076721,24.6661574 6.97055738,24.6708459 6.91148197,24.6708459 C6.26310164,24.6708459 4.97963934,24.1314098 4.29008525,23.8415738 L4.1880459,23.7986951 C3.80299016,23.6372393 3.17438689,23.535541 2.56649836,23.4371672 C2.08281311,23.3588262 1.42045246,23.2516721 1.31065574,23.1548328 C1.22165902,23.0550098 1.3248918,22.7304787 1.41593443,22.4441377 C1.48148852,22.2383541 1.54917377,22.0255803 1.58625574,21.8028328 C1.63885246,21.4475279 1.57696393,21.1582885 1.52735082,20.9259082 Z" fill-rule="nonzero"></path>
                            </g>
                        </g>
                    </g>
                </g>
            </g>
        </g>
    </g>
</svg>