<?xml version="1.0" encoding="UTF-8"?>
<svg width="32px" height="32px" viewBox="0 0 32 32" version="1.1" xmlns="http://www.w3.org/2000/svg" xmlns:xlink="http://www.w3.org/1999/xlink">
    <!-- Generator: Sketch 53.2 (72643) - https://sketchapp.com -->
    <title>twitter</title>
    <desc>Created with Sketch.</desc>
    <g id="twitter" stroke="none" stroke-width="1" fill="none" fill-rule="evenodd">
        <g transform="translate(7.000000, 9.000000)" fill="#FFFFFF" fill-rule="nonzero" id="Path">
            <path d="M18.6172743,2.41692035 C17.9364956,2.71879646 17.204177,2.92297345 16.436177,3.01415929 C17.2203186,2.54435398 17.8220885,1.80099115 18.1061239,0.913769912 C17.3723894,1.34902655 16.5593628,1.66477876 15.6947965,1.83497345 C15.0021239,1.09727434 14.0152212,0.636247788 12.9224071,0.636247788 C10.8256991,0.636247788 9.12516814,2.33677876 9.12516814,4.43348673 C9.12516814,4.73111504 9.15886726,5.02081416 9.224,5.29890265 C6.06817699,5.14060177 3.2700177,3.62895575 1.39702655,1.33090265 C1.07023009,1.89161062 0.882761062,2.54435398 0.882761062,3.24014159 C0.882761062,4.55723894 1.55362832,5.72 2.5719646,6.40077876 C1.94980531,6.38123894 1.36389381,6.21047788 0.852176991,5.92530973 C0.851893805,5.94145133 0.851893805,5.95759292 0.851893805,5.97345133 C0.851893805,7.81330973 2.16134513,9.34789381 3.89812389,9.69649558 C3.57982301,9.78371681 3.24368142,9.82987611 2.8979115,9.82987611 C2.65267257,9.82987611 2.41507965,9.80637168 2.18343363,9.76219469 C2.66654867,11.2704425 4.06860177,12.368354 5.73061947,12.3992212 C4.43079646,13.4178407 2.79369912,14.024708 1.01415929,14.024708 C0.708318584,14.024708 0.405309735,14.0068673 0.108814159,13.971469 C1.78838938,15.0492743 3.78484956,15.6776637 5.92913274,15.6776637 C12.9136283,15.6776637 16.7332389,9.89161062 16.7332389,4.87327434 C16.7332389,4.70874336 16.7295575,4.54477876 16.7221947,4.38223009 C17.464708,3.84700885 18.1083894,3.17840708 18.6172743,2.41692035 L18.6172743,2.41692035 Z"></path>
        </g>
    </g>
</svg>