<?xml version="1.0" encoding="UTF-8"?>
<svg width="56px" height="31px" viewBox="0 0 56 31" version="1.1" xmlns="http://www.w3.org/2000/svg" xmlns:xlink="http://www.w3.org/1999/xlink">
    <!-- Generator: Sketch 52.5 (67469) - http://www.bohemiancoding.com/sketch -->
    <title>logo</title>
    <desc>Created with Sketch.</desc>
    <g id="Page-1" stroke="none" stroke-width="1" fill="none" fill-rule="evenodd">
        <g id="draft-v1-copy" transform="translate(-660.000000, -6107.000000)" fill-rule="nonzero">
            <g id="Group-10" transform="translate(0.000000, 6012.000000)">
                <g id="Group-7" transform="translate(659.000000, 80.000000)">
                    <g id="logo" transform="translate(0.000000, 15.000000)">
                        <path d="M2.34721374,0 L16.8078071,1.77635684e-15 C18.1906935,1.52232473e-15 19.4757416,0.713416045 20.2070208,1.88713049 L29,16 L20.1908413,30.1388378 C19.8009523,30.7646157 18.9775916,30.9558415 18.3518136,30.5659525 C18.1707697,30.4531536 18.0193908,30.2986144 17.9103562,30.1152788 L1.19979987,2.01739748 C0.822922135,1.3836983 1.03111705,0.564463846 1.66481623,0.18758611 C1.87126429,0.0648059671 2.10701432,1.15434694e-15 2.34721374,1.11022302e-15 Z" id="Path" fill="#5CB54B"></path>
                        <path d="M31.3472137,0 L45.8078071,1.77635684e-15 C47.1906935,1.52232473e-15 48.4757416,0.713416045 49.2070208,1.88713049 L58,16 L49.1908413,30.1388378 C48.8009523,30.7646157 47.9775916,30.9558415 47.3518136,30.5659525 C47.1707697,30.4531536 47.0193908,30.2986144 46.9103562,30.1152788 L30.1997999,2.01739748 C29.8229221,1.3836983 30.0311171,0.564463846 30.6648162,0.18758611 C30.8712643,0.0648059671 31.1070143,1.15434694e-15 31.3472137,1.11022302e-15 Z" id="Path" fill="#E93F33" transform="translate(43.500000, 16.000000) scale(-1, 1) translate(-43.500000, -16.000000) "></path>
                    </g>
                </g>
            </g>
        </g>
    </g>
</svg>