<?xml version="1.0" encoding="UTF-8"?>
<svg width="80px" height="80px" viewBox="0 0 80 80" version="1.1" xmlns="http://www.w3.org/2000/svg" xmlns:xlink="http://www.w3.org/1999/xlink">
    <!-- Generator: Sketch 53.2 (72643) - https://sketchapp.com -->
    <title>sell</title>
    <desc>Created with Sketch.</desc>
    <g id="sell" stroke="none" stroke-width="1" fill="none" fill-rule="evenodd">
        <g id="logo" transform="translate(0.000000, 20.000000)" fill-rule="nonzero">
            <path d="M39.2051374,21.5 L26.7849699,1.98069248 C26.1981631,1.05847767 25.1808526,0.5 24.0877733,0.5 L2.19028244,0.5 C2.05621136,0.5 1.92471312,0.536806041 1.81012283,0.606405757 C1.46444672,0.816362112 1.35442412,1.26679122 1.56438048,1.61246733 L25.5157273,41.0464172 C25.5740564,41.1424514 25.6537017,41.2237755 25.7484984,41.2840948 C26.0897205,41.5012149 26.5423463,41.4006105 26.7594664,41.0593884 L39.2051374,21.5 Z" id="Path" stroke="#EE6056" fill="#1A1C1E"></path>
            <path d="M41.988058,0 L63.8855488,2.22044605e-15 C65.1495861,1.98824616e-15 66.3260045,0.64582379 67.0045881,1.71227335 L79.5955511,21.5 L66.9790845,41.3278075 C66.6137206,41.9020068 65.8520541,42.0713013 65.2778548,41.7059374 C65.1183335,41.6044336 64.9843084,41.4675836 64.8861538,41.30598 L40.934807,1.87203008 C40.5814981,1.29033563 40.7666412,0.532365646 41.3483356,0.179056743 C41.5411651,0.0619362153 41.7624468,-6.24689709e-16 41.988058,-6.66133815e-16 Z" id="Path" fill="#EE6056" transform="translate(59.696663, 21.500000) scale(-1, 1) translate(-59.696663, -21.500000) "></path>
        </g>
    </g>
</svg>