<?xml version="1.0" encoding="UTF-8"?>
<svg width="32px" height="32px" viewBox="0 0 32 32" version="1.1" xmlns="http://www.w3.org/2000/svg" xmlns:xlink="http://www.w3.org/1999/xlink">
    <!-- Generator: Sketch 53.2 (72643) - https://sketchapp.com -->
    <title>back</title>
    <desc>Created with Sketch.</desc>
    <g id="back" stroke="none" stroke-width="1" fill="none" fill-rule="evenodd">
        <g id="Group" transform="translate(16.000000, 16.000000) rotate(-90.000000) translate(-16.000000, -16.000000) translate(9.000000, 9.000000)" fill="#FFFFFF">
            <path d="M1.68994946,0 L12.3100505,0 C12.6966499,-7.10171427e-17 13.0100505,0.31340067 13.0100505,0.699999988 C13.0100505,0.885651528 12.9363007,1.06369926 12.8050253,1.19497473 L7.49497474,6.50502526 C7.22160774,6.77839226 6.77839226,6.77839226 6.50502526,6.50502526 L1.19497473,1.19497473 C0.921607727,0.921607727 0.921607727,0.478392249 1.19497473,0.20502525 C1.32625019,0.073749787 1.50429793,3.41036346e-17 1.68994946,0 Z" id="Path-2" transform="translate(7.000000, 3.500000) scale(-1, -1) translate(-7.000000, -3.500000) "></path>
            <rect id="Rectangle" x="5.6" y="5.6" width="2.8" height="8.4" rx="1.4"></rect>
        </g>
    </g>
</svg>