<?xml version="1.0" encoding="UTF-8"?>
<svg width="32px" height="32px" viewBox="0 0 32 32" version="1.1" xmlns="http://www.w3.org/2000/svg" xmlns:xlink="http://www.w3.org/1999/xlink">
    <!-- Generator: Sketch 52.5 (67469) - http://www.bohemiancoding.com/sketch -->
    <title>bitcoin</title>
    <desc>Created with Sketch.</desc>
    <g id="Page-1" stroke="none" stroke-width="1" fill="none" fill-rule="evenodd">
        <g id="Artboard-Copy-4" transform="translate(-842.000000, -636.000000)" fill="#FFFFFF" fill-rule="nonzero">
            <g id="Group-7" transform="translate(535.000000, 384.000000)">
                <g id="Group-5" transform="translate(159.000000, 252.000000)">
                    <g id="bitcoin" transform="translate(148.000000, 0.000000)">
                        <path d="M16.0123779,5.79073587e-06 C7.17525449,-0.00743170792 0.00744328939,7.1505045 5.79073587e-06,15.9876279 C-0.00743170792,24.8247513 7.1505045,31.9925625 15.9876279,32 C24.8235638,31.9925625 31.986375,24.8359388 32,16.0000029 C32,7.16781699 24.8445638,0.00744328939 16.0123779,5.79073587e-06 Z M15.9876279,29.3375005 C8.62169173,29.3375005 2.65019281,23.3659391 2.65019281,16.0000029 C2.65019281,8.63406673 8.62169173,2.66256781 15.9876279,2.66256781 C23.3510641,2.67000531 29.3176255,8.63656673 29.325063,16.0000029 C29.325063,23.3659391 23.3535641,29.3375005 15.9876279,29.3375005 Z" id="Shape"></path>
                        <path d="M20.6837846,14.8054537 C21.7315745,14.184835 22.2978829,12.94244 22.1026463,11.6961219 C21.8601001,9.77194675 19.6773065,9.04553347 17.9552467,8.89266191 L17.9552467,6 L16.2574844,6 L16.2574844,8.86719403 L15.1175845,8.86719403 L15.1175845,6 L13.4198221,6 L13.4198221,8.86719403 L10,8.86719403 L10,10.7149656 L11.2733218,10.7149656 C11.8433023,10.7149656 12.1222029,10.8933693 12.1222029,11.3775806 L12.1222029,19.3165477 C12.1222029,19.9791626 11.8068867,20.1830986 11.4673342,20.1830986 L10.1697762,20.1830986 L10.1697762,22.069072 L13.4682947,22.069072 L13.4682947,25 L15.1781751,25 L15.1781751,22.069072 L16.318075,22.069072 L16.318075,25 L17.979483,25 L17.979483,22.069072 L18.3432717,22.069072 C21.8358026,22.069072 23,20.2723005 23,17.825648 C22.9720916,16.3830471 22.0201451,15.1418741 20.6837846,14.8054537 Z M15.1175233,10.8296353 L16.3301932,10.8296353 C17.1790743,10.8296353 18.8526004,10.9825712 18.8526004,12.4352691 C18.9108042,13.3833687 18.2571595,14.214226 17.3609687,14.3339765 L15.1175233,14.3339765 C15.1175233,14.3339765 15.1175233,10.8296353 15.1175233,10.8296353 Z M16.99718,20.0046305 L16.99718,19.9918966 L15.1175233,19.9918966 L15.1175233,16.1689498 L17.300378,16.1689498 C17.8097067,16.1689498 19.7257178,16.3473535 19.7257178,17.7745836 C19.7257178,19.2018136 18.816246,20.0046305 16.99718,20.0046305 Z" id="Shape"></path>
                    </g>
                </g>
            </g>
        </g>
    </g>
</svg>