<?xml version="1.0" encoding="UTF-8"?>
<svg width="80px" height="80px" viewBox="0 0 80 80" version="1.1" xmlns="http://www.w3.org/2000/svg" xmlns:xlink="http://www.w3.org/1999/xlink">
    <!-- Generator: Sketch 53.2 (72643) - https://sketchapp.com -->
    <title>buy</title>
    <desc>Created with Sketch.</desc>
    <g id="buy" stroke="none" stroke-width="1" fill="none" fill-rule="evenodd">
        <g id="logo" transform="translate(0.000000, 20.000000)" fill-rule="nonzero">
            <path d="M2.19028244,0 L24.0877733,2.22044605e-15 C25.3518106,1.98824616e-15 26.5282289,0.64582379 27.2068125,1.71227335 L39.7977755,21.5 L27.181309,41.3278075 C26.8159451,41.9020068 26.0542786,42.0713013 25.4800793,41.7059374 C25.3205579,41.6044336 25.1865329,41.4675836 25.0883783,41.30598 L1.13703146,1.87203008 C0.783722559,1.29033563 0.968865628,0.532365646 1.55056008,0.179056743 C1.74338953,0.0619362153 1.96467124,-6.24689709e-16 2.19028244,-6.66133815e-16 Z" id="Path" fill="#4BAB3E"></path>
            <path d="M79.0029129,21.5 L66.5827455,1.98069248 C65.9959387,1.05847767 64.9786281,0.5 63.8855488,0.5 L41.988058,0.5 C41.8539869,0.5 41.7224886,0.536806041 41.6078984,0.606405757 C41.2622223,0.816362112 41.1521997,1.26679122 41.362156,1.61246733 L65.3135028,41.0464172 C65.3718319,41.1424514 65.4514772,41.2237755 65.546274,41.2840948 C65.887496,41.5012149 66.3401218,41.4006105 66.5572419,41.0593884 L79.0029129,21.5 Z" id="Path" stroke="#4BAB3E" fill="#1A1C1E" transform="translate(59.696663, 21.500000) scale(-1, 1) translate(-59.696663, -21.500000) "></path>
        </g>
    </g>
</svg>