<?xml version="1.0" encoding="UTF-8"?>
<svg width="60px" height="68px" viewBox="0 0 60 68" version="1.1" xmlns="http://www.w3.org/2000/svg" xmlns:xlink="http://www.w3.org/1999/xlink">
    <!-- Generator: Sketch 53.2 (72643) - https://sketchapp.com -->
    <title>Artboard Copy</title>
    <desc>Created with Sketch.</desc>
    <g id="Artboard-Copy" stroke="none" stroke-width="1" fill="none" fill-rule="evenodd" opacity="0.0893322173">
        <g id="Group-9-Copy" transform="translate(5.000000, 8.000000)" fill="#EE6056" fill-rule="nonzero">
            <path d="M49.9321909,23.8372558 C49.7946279,23.5023547 49.47362,23.2838168 49.1173946,23.2838168 L39.4545017,23.2838168 L39.4545017,0.895560476 C39.4545017,0.401226541 39.0594214,1.13686838e-13 38.57266,1.13686838e-13 L24.4636047,1.13686838e-13 C23.9768432,1.13686838e-13 23.5817629,0.401226541 23.5817629,0.895560476 L23.5817629,23.2839007 L13.8818339,23.2839007 C13.5256085,23.2839007 13.2046005,23.5024386 13.0670375,23.8355767 C12.9312106,24.1704779 13.005283,24.5555848 13.2575094,24.8117351 L30.8497033,42.7367134 C31.0154569,42.9050456 31.2394928,43 31.4740278,43 C31.7085628,43 31.9325988,42.9050456 32.0983523,42.7384765 L49.741719,24.8134982 C49.9939455,24.557264 50.0697539,24.172241 49.9321909,23.8372558 Z" id="Path"></path>
            <path d="M16.9688445,12.532741 C16.9056398,12.3847614 16.7581497,12.2881981 16.5944786,12.2881981 L12.1547711,12.2881981 L12.1547711,2.39571277 C12.1547711,2.17728615 11.9732477,2 11.7496005,2 L5.2670616,2 C5.04341445,2 4.86189105,2.17728615 4.86189105,2.39571277 L4.86189105,12.2882352 L0.405166911,12.2882352 C0.241495784,12.2882352 0.0940056504,12.3847985 0.0308010194,12.531999 C-0.031605957,12.6799786 0.00242730588,12.8501421 0.118315124,12.9633248 L8.20121505,20.8836641 C8.27737207,20.9580434 8.3803075,21 8.48806684,21 C8.59582617,21 8.6987616,20.9580434 8.77491862,20.8844431 L16.8813304,12.9641039 C16.9972182,12.8508841 17.0320491,12.6807576 16.9688445,12.532741 Z" id="Path"></path>
            <path d="M16.9688445,44.532741 C16.9056398,44.3847614 16.7581497,44.2881981 16.5944786,44.2881981 L12.1547711,44.2881981 L12.1547711,34.3957128 C12.1547711,34.1772861 11.9732477,34 11.7496005,34 L5.2670616,34 C5.04341445,34 4.86189105,34.1772861 4.86189105,34.3957128 L4.86189105,44.2882352 L0.405166911,44.2882352 C0.241495784,44.2882352 0.0940056504,44.3847985 0.0308010194,44.531999 C-0.031605957,44.6799786 0.00242730588,44.8501421 0.118315124,44.9633248 L8.20121505,52.8836641 C8.27737207,52.9580434 8.3803075,53 8.48806684,53 C8.59582617,53 8.6987616,52.9580434 8.77491862,52.8844431 L16.8813304,44.9641039 C16.9972182,44.8508841 17.0320491,44.6807576 16.9688445,44.532741 Z" id="Path"></path>
        </g>
    </g>
</svg>