<?xml version="1.0" encoding="UTF-8"?>
<svg width="32px" height="32px" viewBox="0 0 32 32" version="1.1" xmlns="http://www.w3.org/2000/svg" xmlns:xlink="http://www.w3.org/1999/xlink">
    <!-- Generator: Sketch 53 (72520) - https://sketchapp.com -->
    <title>discord</title>
    <desc>Created with Sketch.</desc>
    <g id="discord" stroke="none" stroke-width="1" fill="none" fill-rule="evenodd">
        <path d="M24.1192482,9.93141661 C24.1192482,9.93141661 22.5430179,8.24419216 18.9641097,8 L18.9641097,8.53274919 C18.9641097,8.53274919 20.927064,8.41744995 23.3569228,10.8357679 C21.522795,9.50160876 18.9062967,8.6658438 15.9999999,8.6658438 C13.093703,8.6658438 10.4772047,9.50148518 8.64307694,10.8357679 C11.0729357,8.41744995 13.03589,8.53274919 13.03589,8.53274919 L13.03589,8 C9.45698184,8.24419216 7.88075154,9.93141661 7.88075154,9.93141661 C5.15363845,13.4830779 5,21.252862 5,21.252862 C7.56883004,24.3828716 10.7964598,23.9834642 10.7964598,23.9834642 L11.9820549,22.2519985 C10.4531261,21.833807 9.36127865,20.8737216 8.70504567,20.1260685 C10.5358733,21.4343996 13.126093,22.2519985 15.9999999,22.2519985 C18.8739067,22.2519985 21.4641264,21.4345232 23.294954,20.1260685 C22.6387211,20.873598 21.5468736,21.833807 20.0179448,22.2519985 L21.2035399,23.9834642 C21.2035399,23.9834642 24.4311697,24.3831188 26.9999997,21.252862 C27.0002442,21.2527384 26.8464835,13.4830779 24.1192482,9.93141661 Z M12.21875,19.1304348 C11.2694921,19.1304348 10.5,18.1961667 10.5,17.0434783 C10.5,15.8909184 11.2694921,14.9565217 12.21875,14.9565217 C13.1680079,14.9565217 13.9375,15.8909184 13.9375,17.0434783 C13.9375,18.1960381 13.1680079,19.1304348 12.21875,19.1304348 Z M19.78125,19.1304348 C18.8319921,19.1304348 18.0625,18.1961667 18.0625,17.0434783 C18.0625,15.8909184 18.8319921,14.9565217 19.78125,14.9565217 C20.7305079,14.9565217 21.5,15.8909184 21.5,17.0434783 C21.5,18.1960381 20.7306205,19.1304348 19.78125,19.1304348 Z" id="Shape" fill="#FFFFFF" fill-rule="nonzero"></path>
    </g>
</svg>