<?xml version="1.0" encoding="UTF-8"?>
<svg width="32px" height="32px" viewBox="0 0 32 32" version="1.1" xmlns="http://www.w3.org/2000/svg" xmlns:xlink="http://www.w3.org/1999/xlink">
    <!-- Generator: Sketch 52.5 (67469) - http://www.bohemiancoding.com/sketch -->
    <title>Artboard</title>
    <desc>Created with Sketch.</desc>
    <g id="Artboard" stroke="none" stroke-width="1" fill="none" fill-rule="evenodd">
        <g id="latest" transform="translate(4.000000, 3.000000)" fill="#FFFFFF" fill-rule="nonzero">
            <path d="M14.5659051,11 C13.7644991,11 13.1318102,11.6681818 13.1318102,12.5 C13.1318102,13.3318182 13.7785589,14 14.5659051,14 C15.3673111,14 16,13.3318182 16,12.5 C16,11.6681818 15.3532513,11 14.5659051,11 Z M9.4340949,11 C8.63268893,11 8,11.6681818 8,12.5 C8,13.3318182 8.64674868,14 9.4340949,14 C10.2355009,14 10.8681898,13.3318182 10.8681898,12.5 C10.8822496,11.6681818 10.2355009,11 9.4340949,11 Z" id="Shape"></path>
            <path d="M20.8668688,0 L2.76874311,0 C1.24255788,0 0,1.2526475 0,2.79122542 L0,21.0363086 C0,22.5748865 1.24255788,23.827534 2.76874311,23.827534 L18.0846196,23.827534 L17.3687982,21.3358548 L19.0975744,22.9425113 L20.7318082,24.4538578 L23.649118,27 L23.649118,2.79122542 C23.6356119,1.2526475 22.393054,0 20.8668688,0 Z M15.6535281,17.6323752 C15.6535281,17.6323752 15.1673098,17.0468986 14.7621279,16.5431165 C16.5314223,16.0393343 17.2067255,14.9364599 17.2067255,14.9364599 C16.6529768,15.3040847 16.1262404,15.5627837 15.6535281,15.7397882 C14.9782249,16.0257186 14.3299338,16.2027231 13.6951488,16.3252648 C12.3985667,16.570348 11.2100331,16.5022693 10.1970783,16.311649 C9.42723264,16.1618759 8.7654355,15.9576399 8.21168688,15.7261725 C7.90104741,15.6036309 7.56339581,15.4538578 7.22574421,15.2632375 C7.18522602,15.2360061 7.14470783,15.2223903 7.10418964,15.1951589 C7.07717751,15.1815431 7.06367144,15.1679274 7.05016538,15.1679274 C6.80705623,15.03177 6.67199559,14.9364599 6.67199559,14.9364599 C6.67199559,14.9364599 7.32028666,16.0121029 9.03555678,16.5295008 C8.63037486,17.0468986 8.1306505,17.6459909 8.1306505,17.6459909 C5.14581036,17.5506808 4.01130099,15.5900151 4.01130099,15.5900151 C4.01130099,11.2465961 5.9561742,7.72012103 5.9561742,7.72012103 C7.90104741,6.26323752 9.73787211,6.30408472 9.73787211,6.30408472 L9.87293275,6.46747352 C7.44184123,7.16187595 6.33434399,8.23751891 6.33434399,8.23751891 C6.33434399,8.23751891 6.6314774,8.07413011 7.13120176,7.85627837 C8.57635061,7.21633888 9.72436604,7.05295008 10.1970783,6.99848714 C10.2781147,6.98487141 10.345645,6.97125567 10.4266814,6.97125567 C11.2505513,6.8623298 12.1824697,6.83509834 13.1549063,6.94402421 C14.4379824,7.09379728 15.8156009,7.47503782 17.2202315,8.23751891 C17.2202315,8.23751891 16.1532525,7.21633888 13.8572216,6.52193646 L14.0463065,6.30408472 C14.0463065,6.30408472 15.8966373,6.26323752 17.8280044,7.72012103 C17.8280044,7.72012103 19.7728776,11.2465961 19.7728776,15.5900151 C19.7728776,15.5763994 18.6383682,17.5370651 15.6535281,17.6323752 Z" id="Shape"></path>
        </g>
    </g>
</svg>