<?xml version="1.0" encoding="UTF-8"?>
<svg width="194px" height="194px" viewBox="0 0 194 194" version="1.1" xmlns="http://www.w3.org/2000/svg" xmlns:xlink="http://www.w3.org/1999/xlink">
    <!-- Generator: Sketch 52.5 (67469) - http://www.bohemiancoding.com/sketch -->
    <title>Group 11</title>
    <desc>Created with Sketch.</desc>
    <defs>
        <rect id="path-1" x="0" y="0" width="100" height="100" rx="50"></rect>
        <filter x="-74.5%" y="-72.5%" width="249.0%" height="249.0%" filterUnits="objectBoundingBox" id="filter-2">
            <feOffset dx="0" dy="2" in="SourceAlpha" result="shadowOffsetOuter1"></feOffset>
            <feGaussianBlur stdDeviation="24.5" in="shadowOffsetOuter1" result="shadowBlurOuter1"></feGaussianBlur>
            <feColorMatrix values="0 0 0 0 0   0 0 0 0 0   0 0 0 0 0  0 0 0 0.102496603 0" type="matrix" in="shadowBlurOuter1"></feColorMatrix>
        </filter>
    </defs>
    <g id="Page-1" stroke="none" stroke-width="1" fill="none" fill-rule="evenodd">
        <g id="draft-v1" transform="translate(-494.000000, -3503.000000)">
            <g id="Group-12" transform="translate(237.000000, 3068.000000)">
                <g id="Group-11" transform="translate(304.000000, 480.000000)">
                    <path d="M11.4414062,128 L9.05859375,128 L9.05859375,116.578125 L15.6054688,116.578125 L15.6054688,118.5625 L11.4414062,118.5625 L11.4414062,121.507812 L15.3164062,121.507812 L15.3164062,123.484375 L11.4414062,123.484375 L11.4414062,128 Z M19.5507812,123.617188 C19.5507812,124.481775 19.6927069,125.135414 19.9765625,125.578125 C20.2604181,126.020836 20.722653,126.242188 21.3632812,126.242188 C21.9987011,126.242188 22.4557278,126.022138 22.734375,125.582031 C23.0130222,125.141925 23.1523438,124.486984 23.1523438,123.617188 C23.1523438,122.7526 23.0117202,122.104169 22.7304688,121.671875 C22.4492173,121.239581 21.9882845,121.023438 21.3476562,121.023438 C20.7122364,121.023438 20.2539077,121.238279 19.9726562,121.667969 C19.6914048,122.097658 19.5507812,122.747391 19.5507812,123.617188 Z M25.5898438,123.617188 C25.5898438,125.03907 25.2148475,126.151038 24.4648438,126.953125 C23.71484,127.755212 22.6705796,128.15625 21.3320312,128.15625 C20.4934854,128.15625 19.7539095,127.972658 19.1132812,127.605469 C18.472653,127.238279 17.9804705,126.710941 17.6367188,126.023438 C17.292967,125.335934 17.1210938,124.533859 17.1210938,123.617188 C17.1210938,122.190097 17.4934859,121.080733 18.2382812,120.289062 C18.9830766,119.497392 20.0299412,119.101562 21.3789062,119.101562 C22.2174521,119.101562 22.957028,119.283852 23.5976562,119.648438 C24.2382845,120.013023 24.730467,120.536455 25.0742188,121.21875 C25.4179705,121.901045 25.5898438,122.700516 25.5898438,123.617188 Z M33.7460938,128 L33.4257812,126.882812 L33.3007812,126.882812 C33.0455716,127.289065 32.6835961,127.602863 32.2148438,127.824219 C31.7460914,128.045574 31.2122426,128.15625 30.6132812,128.15625 C29.5872345,128.15625 28.8138047,127.881513 28.2929688,127.332031 C27.7721328,126.782549 27.5117188,125.992193 27.5117188,124.960938 L27.5117188,119.265625 L29.8945312,119.265625 L29.8945312,124.367188 C29.8945312,124.997399 30.0065093,125.470051 30.2304688,125.785156 C30.4544282,126.100262 30.8111955,126.257812 31.3007812,126.257812 C31.9674512,126.257812 32.4492173,126.035158 32.7460938,125.589844 C33.0429702,125.144529 33.1914062,124.406255 33.1914062,123.375 L33.1914062,119.265625 L35.5742188,119.265625 L35.5742188,128 L33.7460938,128 Z M46.1367188,128 L43.7539062,128 L43.7539062,122.898438 C43.7539062,122.268226 43.6419282,121.795574 43.4179688,121.480469 C43.1940093,121.165363 42.837242,121.007812 42.3476562,121.007812 C41.6809862,121.007812 41.1992202,121.230467 40.9023438,121.675781 C40.6054673,122.121096 40.4570312,122.85937 40.4570312,123.890625 L40.4570312,128 L38.0742188,128 L38.0742188,119.265625 L39.8945312,119.265625 L40.2148438,120.382812 L40.3476562,120.382812 C40.6132826,119.960935 40.9791643,119.641928 41.4453125,119.425781 C41.9114607,119.209634 42.4414033,119.101562 43.0351562,119.101562 C44.0507863,119.101562 44.821612,119.376299 45.3476562,119.925781 C45.8737005,120.475263 46.1367188,121.268224 46.1367188,122.304688 L46.1367188,128 Z M51.3554688,128.15625 C50.329422,128.15625 49.5234404,127.757816 48.9375,126.960938 C48.3515596,126.164059 48.0585938,125.059903 48.0585938,123.648438 C48.0585938,122.216139 48.3567679,121.100264 48.953125,120.300781 C49.5494821,119.501298 50.3710885,119.101562 51.4179688,119.101562 C52.5169326,119.101562 53.3554659,119.528642 53.9335938,120.382812 L54.0117188,120.382812 C53.8919265,119.731768 53.8320312,119.151044 53.8320312,118.640625 L53.8320312,115.84375 L56.2226562,115.84375 L56.2226562,128 L54.3945312,128 L53.9335938,126.867188 L53.8320312,126.867188 C53.2903619,127.726567 52.4648493,128.15625 51.3554688,128.15625 Z M52.1914062,126.257812 C52.8007843,126.257812 53.2473944,126.080731 53.53125,125.726562 C53.8151056,125.372394 53.970052,124.770838 53.9960938,123.921875 L53.9960938,123.664062 C53.9960938,122.726558 53.8515639,122.05469 53.5625,121.648438 C53.2734361,121.242185 52.8033887,121.039062 52.1523438,121.039062 C51.6210911,121.039062 51.2083348,121.264321 50.9140625,121.714844 C50.6197902,122.165367 50.4726562,122.820308 50.4726562,123.679688 C50.4726562,124.539067 50.6210923,125.183592 50.9179688,125.613281 C51.2148452,126.042971 51.6393202,126.257812 52.1914062,126.257812 Z M64.2617188,128 L63.8007812,126.8125 L63.7382812,126.8125 C63.3372376,127.317711 62.9244813,127.667968 62.5,127.863281 C62.0755187,128.058595 61.5221388,128.15625 60.8398438,128.15625 C60.0012979,128.15625 59.3411482,127.916669 58.859375,127.4375 C58.3776018,126.958331 58.1367188,126.276046 58.1367188,125.390625 C58.1367188,124.463537 58.4609343,123.77995 59.109375,123.339844 C59.7578157,122.899737 60.7356705,122.65625 62.0429688,122.609375 L63.5585938,122.5625 L63.5585938,122.179688 C63.5585938,121.294266 63.1054733,120.851562 62.1992188,120.851562 C61.5012986,120.851562 60.6809943,121.062498 59.7382812,121.484375 L58.9492188,119.875 C59.9544321,119.348956 61.0690043,119.085938 62.2929688,119.085938 C63.4648496,119.085938 64.3632781,119.341143 64.9882812,119.851562 C65.6132844,120.361982 65.9257812,121.138016 65.9257812,122.179688 L65.9257812,128 L64.2617188,128 Z M63.5585938,123.953125 L62.6367188,123.984375 C61.944007,124.005208 61.4283871,124.130207 61.0898438,124.359375 C60.7513004,124.588543 60.5820312,124.937498 60.5820312,125.40625 C60.5820312,126.078128 60.9674441,126.414062 61.7382812,126.414062 C62.2903673,126.414062 62.7317692,126.25521 63.0625,125.9375 C63.3932308,125.61979 63.5585938,125.197919 63.5585938,124.671875 L63.5585938,123.953125 Z M72.0585938,126.257812 C72.4752625,126.257812 72.9752575,126.166668 73.5585938,125.984375 L73.5585938,127.757812 C72.9648408,128.023439 72.2356814,128.15625 71.3710938,128.15625 C70.417964,128.15625 69.7239605,127.915367 69.2890625,127.433594 C68.8541645,126.951821 68.6367188,126.229171 68.6367188,125.265625 L68.6367188,121.054688 L67.4960938,121.054688 L67.4960938,120.046875 L68.8085938,119.25 L69.4960938,117.40625 L71.0195312,117.40625 L71.0195312,119.265625 L73.4648438,119.265625 L73.4648438,121.054688 L71.0195312,121.054688 L71.0195312,125.265625 C71.0195312,125.604168 71.1145824,125.854166 71.3046875,126.015625 C71.4947926,126.177084 71.7460922,126.257812 72.0585938,126.257812 Z M75.2226562,117.007812 C75.2226562,116.231767 75.6549436,115.84375 76.5195312,115.84375 C77.3841189,115.84375 77.8164062,116.231767 77.8164062,117.007812 C77.8164062,117.377606 77.7083344,117.665364 77.4921875,117.871094 C77.2760406,118.076824 76.9518251,118.179688 76.5195312,118.179688 C75.6549436,118.179688 75.2226562,117.789066 75.2226562,117.007812 Z M77.7070312,128 L75.3242188,128 L75.3242188,119.265625 L77.7070312,119.265625 L77.7070312,128 Z M82.1054688,123.617188 C82.1054688,124.481775 82.2473944,125.135414 82.53125,125.578125 C82.8151056,126.020836 83.2773405,126.242188 83.9179688,126.242188 C84.5533886,126.242188 85.0104153,126.022138 85.2890625,125.582031 C85.5677097,125.141925 85.7070312,124.486984 85.7070312,123.617188 C85.7070312,122.7526 85.5664077,122.104169 85.2851562,121.671875 C85.0039048,121.239581 84.542972,121.023438 83.9023438,121.023438 C83.2669239,121.023438 82.8085952,121.238279 82.5273438,121.667969 C82.2460923,122.097658 82.1054688,122.747391 82.1054688,123.617188 Z M88.1445312,123.617188 C88.1445312,125.03907 87.769535,126.151038 87.0195312,126.953125 C86.2695275,127.755212 85.2252671,128.15625 83.8867188,128.15625 C83.0481729,128.15625 82.308597,127.972658 81.6679688,127.605469 C81.0273405,127.238279 80.535158,126.710941 80.1914062,126.023438 C79.8476545,125.335934 79.6757812,124.533859 79.6757812,123.617188 C79.6757812,122.190097 80.0481734,121.080733 80.7929688,120.289062 C81.5377641,119.497392 82.5846287,119.101562 83.9335938,119.101562 C84.7721396,119.101562 85.5117155,119.283852 86.1523438,119.648438 C86.792972,120.013023 87.2851545,120.536455 87.6289062,121.21875 C87.972658,121.901045 88.1445312,122.700516 88.1445312,123.617188 Z M98.1757812,128 L95.7929688,128 L95.7929688,122.898438 C95.7929688,122.268226 95.6809907,121.795574 95.4570312,121.480469 C95.2330718,121.165363 94.8763045,121.007812 94.3867188,121.007812 C93.7200488,121.007812 93.2382827,121.230467 92.9414062,121.675781 C92.6445298,122.121096 92.4960938,122.85937 92.4960938,123.890625 L92.4960938,128 L90.1132812,128 L90.1132812,119.265625 L91.9335938,119.265625 L92.2539062,120.382812 L92.3867188,120.382812 C92.6523451,119.960935 93.0182268,119.641928 93.484375,119.425781 C93.9505232,119.209634 94.4804658,119.101562 95.0742188,119.101562 C96.0898488,119.101562 96.8606745,119.376299 97.3867188,119.925781 C97.912763,120.475263 98.1757812,121.268224 98.1757812,122.304688 L98.1757812,128 Z" id="Foundation" fill="#2A2A2A"></path>
                    <g id="Group-8-Copy-2">
                        <g id="Rectangle" fill-rule="nonzero">
                            <use fill="black" fill-opacity="1" filter="url(#filter-2)" xlink:href="#path-1"></use>
                            <use fill="#FFFFFF" xlink:href="#path-1"></use>
                        </g>
                        <path d="M80.8908852,10.681237 C72.3870633,3.99091786 61.659596,0 50,0 L50,52.821438 L80.8908852,10.681237 Z" id="Path" fill="#5CB54B" fill-rule="nonzero"></path>
                        <rect id="Rectangle" fill="#F5F5F5" fill-rule="nonzero" x="10" y="10" width="80" height="80" rx="40"></rect>
                        <path d="M34.9140625,60 L31.2929688,60 L31.2929688,50.0859375 L31.328125,48.4570312 L31.3867188,46.6757812 C30.7851532,47.2773468 30.3671887,47.6718741 30.1328125,47.859375 L28.1640625,49.4414062 L26.4179688,47.2617188 L31.9375,42.8671875 L34.9140625,42.8671875 L34.9140625,60 Z M51.5429688,51.4335938 C51.5429688,54.4257962 51.0527393,56.6406178 50.0722656,58.078125 C49.091792,59.5156322 47.5820414,60.234375 45.5429688,60.234375 C43.5663964,60.234375 42.0761769,59.4921949 41.0722656,58.0078125 C40.0683544,56.5234301 39.5664062,54.3320457 39.5664062,51.4335938 C39.5664062,48.4101411 40.0546826,46.1816478 41.03125,44.7480469 C42.0078174,43.314446 43.5117086,42.5976562 45.5429688,42.5976562 C47.5195411,42.5976562 49.0136668,43.3476487 50.0253906,44.8476562 C51.0371144,46.3476637 51.5429688,48.5429543 51.5429688,51.4335938 Z M43.1640625,51.4335938 C43.1640625,53.5351668 43.3457013,55.0410111 43.7089844,55.9511719 C44.0722674,56.8613327 44.6835895,57.3164062 45.5429688,57.3164062 C46.386723,57.3164062 46.9960919,56.8554734 47.3710938,55.9335938 C47.7460956,55.0117141 47.9335938,53.5117291 47.9335938,51.4335938 C47.9335938,49.3320207 47.7441425,47.8222702 47.3652344,46.9042969 C46.9863262,45.9863235 46.3789104,45.5273438 45.5429688,45.5273438 C44.691402,45.5273438 44.0820331,45.9863235 43.7148438,46.9042969 C43.3476544,47.8222702 43.1640625,49.3320207 43.1640625,51.4335938 Z M56.0898438,48 C56.0898438,48.9921925 56.1777335,49.7324194 56.3535156,50.2207031 C56.5292978,50.7089868 56.812498,50.953125 57.203125,50.953125 C57.9531288,50.953125 58.328125,49.9687598 58.328125,48 C58.328125,46.0468652 57.9531288,45.0703125 57.203125,45.0703125 C56.812498,45.0703125 56.5292978,45.3105445 56.3535156,45.7910156 C56.1777335,46.2714868 56.0898438,47.0078075 56.0898438,48 Z M61.28125,47.9765625 C61.28125,49.7734465 60.9335972,51.1230424 60.2382812,52.0253906 C59.5429653,52.9277389 58.5234442,53.3789062 57.1796875,53.3789062 C55.8906186,53.3789062 54.8945348,52.9160203 54.1914062,51.9902344 C53.4882777,51.0644485 53.1367188,49.7265712 53.1367188,47.9765625 C53.1367188,44.4062321 54.4843615,42.6210938 57.1796875,42.6210938 C58.5000066,42.6210938 59.5136683,43.0839797 60.2207031,44.0097656 C60.9277379,44.9355515 61.28125,46.2578039 61.28125,47.9765625 Z M69.34375,42.8671875 L59.8398438,60 L57.0273438,60 L66.53125,42.8671875 L69.34375,42.8671875 Z M68.0898438,54.84375 C68.0898438,55.8359425 68.1777335,56.5761694 68.3535156,57.0644531 C68.5292978,57.5527368 68.812498,57.796875 69.203125,57.796875 C69.9531287,57.796875 70.328125,56.8125098 70.328125,54.84375 C70.328125,52.8906152 69.9531287,51.9140625 69.203125,51.9140625 C68.812498,51.9140625 68.5292978,52.1542945 68.3535156,52.6347656 C68.1777335,53.1152368 68.0898438,53.8515575 68.0898438,54.84375 Z M73.28125,54.8203125 C73.28125,56.6093839 72.9335972,57.9550736 72.2382812,58.8574219 C71.5429653,59.7597701 70.5234442,60.2109375 69.1796875,60.2109375 C67.8906186,60.2109375 66.8945348,59.7480515 66.1914062,58.8222656 C65.4882777,57.8964797 65.1367188,56.5625087 65.1367188,54.8203125 C65.1367188,51.2499821 66.4843615,49.4648438 69.1796875,49.4648438 C70.5000066,49.4648438 71.5136683,49.9277297 72.2207031,50.8535156 C72.9277379,51.7793015 73.28125,53.1015539 73.28125,54.8203125 Z" id="10%" fill="#2A2A2A"></path>
                    </g>
                </g>
            </g>
        </g>
    </g>
</svg>