<?xml version="1.0" encoding="UTF-8"?>
<svg width="1749px" height="416px" viewBox="0 0 1749 416" version="1.1" xmlns="http://www.w3.org/2000/svg" xmlns:xlink="http://www.w3.org/1999/xlink">
    <!-- Generator: Sketch 53.2 (72643) - https://sketchapp.com -->
    <title>Group 7</title>
    <desc>Created with Sketch.</desc>
    <defs>
        <linearGradient x1="50%" y1="0%" x2="50%" y2="100%" id="linearGradient-1">
            <stop stop-color="#509BF2" offset="0%"></stop>
            <stop stop-color="#509BF2" stop-opacity="0" offset="100%"></stop>
        </linearGradient>
    </defs>
    <g id="Page-1" stroke="none" stroke-width="1" fill="none" fill-rule="evenodd">
        <g id="Artboard-Copy" transform="translate(-39.000000, -335.000000)">
            <g id="Group-7" transform="translate(40.000000, 336.000000)">
                <path d="M0,410.467177 C18.2008574,398.606307 52.782913,369.634329 103.746167,323.551244 C180.191047,254.426615 292.375573,270.856261 320.298015,283.065372 C348.220456,295.274482 409.858526,361.613031 520.79266,326.777756 C631.726793,291.942481 598.37099,123.507761 716.213768,124.922833 C834.056547,126.337906 818.467117,203.228976 934.016009,202.718892 C1049.5649,202.208808 1106.93904,249.901675 1130.22873,314.591862 C1153.51842,379.28205 1218.76374,386.077687 1278.31483,354.814465 C1337.86591,323.551244 1349.25438,284.117756 1417.83708,268.651381 C1486.41978,253.185006 1569.82088,113.223482 1650.43089,142.959747 C1662.67147,147.475179 1695.80222,156.50967 1719.86194,113.631985 C1727.98819,99.1498851 1736.70088,61.9392233 1746,2 L1746,415" id="Path-4" fill="url(#linearGradient-1)" opacity="0.46631567"></path>
                <path d="M0,411 C18.2008574,399.144213 52.782913,370.184651 103.746167,324.121315 C180.191047,255.02631 292.375573,271.448915 320.298015,283.652793 C348.220456,295.856672 409.858526,362.166791 520.79266,327.346444 C631.726793,292.526098 598.37099,124.163562 716.213768,125.578028 C834.056547,126.992494 818.467117,203.850612 934.016009,203.340747 C1049.5649,202.830881 1106.93904,250.503309 1130.22873,315.165773 C1153.51842,379.828237 1218.76374,386.620962 1278.31483,355.371138 C1337.86591,324.121315 1349.25438,284.704727 1417.83708,269.24498 C1486.41978,253.785232 1569.82088,112.884818 1650.43089,142.608339 C1704.17091,162.42402 1736.02727,114.887907 1746,0" id="Path-4" stroke="#509BF2" stroke-width="3"></path>
            </g>
        </g>
    </g>
</svg>