<?xml version="1.0" encoding="UTF-8"?>
<svg width="194px" height="194px" viewBox="0 0 194 194" version="1.1" xmlns="http://www.w3.org/2000/svg" xmlns:xlink="http://www.w3.org/1999/xlink">
    <!-- Generator: Sketch 52.5 (67469) - http://www.bohemiancoding.com/sketch -->
    <title>Group 9</title>
    <desc>Created with Sketch.</desc>
    <defs>
        <rect id="path-1" x="0" y="0" width="100" height="100" rx="50"></rect>
        <filter x="-74.5%" y="-72.5%" width="249.0%" height="249.0%" filterUnits="objectBoundingBox" id="filter-2">
            <feOffset dx="0" dy="2" in="SourceAlpha" result="shadowOffsetOuter1"></feOffset>
            <feGaussianBlur stdDeviation="24.5" in="shadowOffsetOuter1" result="shadowBlurOuter1"></feGaussianBlur>
            <feColorMatrix values="0 0 0 0 0   0 0 0 0 0   0 0 0 0 0  0 0 0 0.102496603 0" type="matrix" in="shadowBlurOuter1"></feColorMatrix>
        </filter>
    </defs>
    <g id="Page-1" stroke="none" stroke-width="1" fill="none" fill-rule="evenodd">
        <g id="draft-v1" transform="translate(-193.000000, -3503.000000)">
            <g id="Group-12" transform="translate(237.000000, 3068.000000)">
                <g id="Group-9" transform="translate(0.000000, 480.000000)">
                    <g id="Group-8" transform="translate(3.000000, 0.000000)">
                        <g id="Rectangle" fill-rule="nonzero">
                            <use fill="black" fill-opacity="1" filter="url(#filter-2)" xlink:href="#path-1"></use>
                            <use fill="#FFFFFF" xlink:href="#path-1"></use>
                        </g>
                        <path d="M2.68450248,33.7949146 C0.944390218,38.8769235 0,44.3281746 0,50 C0,77.6142375 22.3857625,100 50,100 C77.6142375,100 100,77.6142375 100,50 C100,22.3857625 77.6142375,0 50,0 L50,50 L2.68450248,33.7949146 Z" id="Path" fill="#5CB54B" fill-rule="nonzero"></path>
                        <rect id="Rectangle" fill="#F5F5F5" fill-rule="nonzero" x="10" y="10" width="80" height="80" rx="40"></rect>
                        <path d="M31.8671875,42.6445312 C33.5078207,42.6445312 34.8300731,43.0175744 35.8339844,43.7636719 C36.8378956,44.5097694 37.3398438,45.5156187 37.3398438,46.78125 C37.3398438,47.6562544 37.0976587,48.4355435 36.6132812,49.1191406 C36.1289038,49.8027378 35.3476616,50.4140598 34.2695312,50.953125 C35.5507877,51.6406284 36.4707003,52.3574181 37.0292969,53.1035156 C37.5878934,53.8496131 37.8671875,54.6679643 37.8671875,55.5585938 C37.8671875,56.9648508 37.3164118,58.0956988 36.2148438,58.9511719 C35.1132757,59.8066449 33.6640715,60.234375 31.8671875,60.234375 C29.9921781,60.234375 28.5195366,59.8359415 27.4492188,59.0390625 C26.3789009,58.2421835 25.84375,57.1132886 25.84375,55.6523438 C25.84375,54.6757764 26.103513,53.8085975 26.6230469,53.0507812 C27.1425807,52.292965 27.9765568,51.6250029 29.125,51.046875 C28.1484326,50.4296844 27.4453146,49.7695348 27.015625,49.0664062 C26.5859354,48.3632777 26.3710938,47.5937542 26.3710938,46.7578125 C26.3710938,45.5312439 26.8789012,44.5390663 27.8945312,43.78125 C28.9101613,43.0234337 30.2343668,42.6445312 31.8671875,42.6445312 Z M29.1953125,55.4414062 C29.1953125,56.1132846 29.4296852,56.6367169 29.8984375,57.0117188 C30.3671898,57.3867206 31.0078084,57.5742188 31.8203125,57.5742188 C32.7187545,57.5742188 33.3906228,57.3808613 33.8359375,56.9941406 C34.2812522,56.6074199 34.5039062,56.0976594 34.5039062,55.4648438 C34.5039062,54.9414036 34.2832053,54.4511742 33.8417969,53.9941406 C33.4003884,53.5371071 32.6835987,53.0507838 31.6914062,52.5351562 C30.0273354,53.3007851 29.1953125,54.2695254 29.1953125,55.4414062 Z M31.84375,45.2929688 C31.2265594,45.2929688 30.7285175,45.4511703 30.3496094,45.7675781 C29.9707012,46.083986 29.78125,46.5078098 29.78125,47.0390625 C29.78125,47.5078148 29.9316391,47.9277325 30.2324219,48.2988281 C30.5332046,48.6699237 31.0781211,49.0507793 31.8671875,49.4414062 C32.6328163,49.0820295 33.1679672,48.7148456 33.4726562,48.3398438 C33.7773453,47.9648419 33.9296875,47.5312525 33.9296875,47.0390625 C33.9296875,46.4999973 33.734377,46.0742203 33.34375,45.7617188 C32.953123,45.4492172 32.453128,45.2929688 31.84375,45.2929688 Z M51.5429688,51.4335938 C51.5429688,54.4257962 51.0527393,56.6406178 50.0722656,58.078125 C49.091792,59.5156322 47.5820414,60.234375 45.5429688,60.234375 C43.5663964,60.234375 42.0761769,59.4921949 41.0722656,58.0078125 C40.0683544,56.5234301 39.5664062,54.3320457 39.5664062,51.4335938 C39.5664062,48.4101411 40.0546826,46.1816478 41.03125,44.7480469 C42.0078174,43.314446 43.5117086,42.5976562 45.5429688,42.5976562 C47.5195411,42.5976562 49.0136668,43.3476487 50.0253906,44.8476562 C51.0371144,46.3476637 51.5429688,48.5429543 51.5429688,51.4335938 Z M43.1640625,51.4335938 C43.1640625,53.5351668 43.3457013,55.0410111 43.7089844,55.9511719 C44.0722674,56.8613327 44.6835895,57.3164062 45.5429688,57.3164062 C46.386723,57.3164062 46.9960919,56.8554734 47.3710938,55.9335938 C47.7460956,55.0117141 47.9335938,53.5117291 47.9335938,51.4335938 C47.9335938,49.3320207 47.7441425,47.8222702 47.3652344,46.9042969 C46.9863262,45.9863235 46.3789104,45.5273438 45.5429688,45.5273438 C44.691402,45.5273438 44.0820331,45.9863235 43.7148438,46.9042969 C43.3476544,47.8222702 43.1640625,49.3320207 43.1640625,51.4335938 Z M56.0898438,48 C56.0898438,48.9921925 56.1777335,49.7324194 56.3535156,50.2207031 C56.5292978,50.7089868 56.812498,50.953125 57.203125,50.953125 C57.9531288,50.953125 58.328125,49.9687598 58.328125,48 C58.328125,46.0468652 57.9531288,45.0703125 57.203125,45.0703125 C56.812498,45.0703125 56.5292978,45.3105445 56.3535156,45.7910156 C56.1777335,46.2714868 56.0898438,47.0078075 56.0898438,48 Z M61.28125,47.9765625 C61.28125,49.7734465 60.9335972,51.1230424 60.2382812,52.0253906 C59.5429653,52.9277389 58.5234442,53.3789062 57.1796875,53.3789062 C55.8906186,53.3789062 54.8945348,52.9160203 54.1914062,51.9902344 C53.4882777,51.0644485 53.1367188,49.7265712 53.1367188,47.9765625 C53.1367188,44.4062321 54.4843615,42.6210938 57.1796875,42.6210938 C58.5000066,42.6210938 59.5136683,43.0839797 60.2207031,44.0097656 C60.9277379,44.9355515 61.28125,46.2578039 61.28125,47.9765625 Z M69.34375,42.8671875 L59.8398438,60 L57.0273438,60 L66.53125,42.8671875 L69.34375,42.8671875 Z M68.0898438,54.84375 C68.0898438,55.8359425 68.1777335,56.5761694 68.3535156,57.0644531 C68.5292978,57.5527368 68.812498,57.796875 69.203125,57.796875 C69.9531287,57.796875 70.328125,56.8125098 70.328125,54.84375 C70.328125,52.8906152 69.9531287,51.9140625 69.203125,51.9140625 C68.812498,51.9140625 68.5292978,52.1542945 68.3535156,52.6347656 C68.1777335,53.1152368 68.0898438,53.8515575 68.0898438,54.84375 Z M73.28125,54.8203125 C73.28125,56.6093839 72.9335972,57.9550736 72.2382812,58.8574219 C71.5429653,59.7597701 70.5234442,60.2109375 69.1796875,60.2109375 C67.8906186,60.2109375 66.8945348,59.7480515 66.1914062,58.8222656 C65.4882777,57.8964797 65.1367188,56.5625087 65.1367188,54.8203125 C65.1367188,51.2499821 66.4843615,49.4648438 69.1796875,49.4648438 C70.5000066,49.4648438 71.5136683,49.9277297 72.2207031,50.8535156 C72.9277379,51.7793015 73.28125,53.1015539 73.28125,54.8203125 Z" id="80%" fill="#2A2A2A"></path>
                    </g>
                    <path d="M6.3671875,128 L3.6171875,119.039062 L3.546875,119.039062 C3.64583383,120.861988 3.6953125,122.078122 3.6953125,122.6875 L3.6953125,128 L1.53125,128 L1.53125,116.578125 L4.828125,116.578125 L7.53125,125.3125 L7.578125,125.3125 L10.4453125,116.578125 L13.7421875,116.578125 L13.7421875,128 L11.484375,128 L11.484375,122.59375 C11.484375,122.33854 11.4882812,122.044273 11.4960938,121.710938 C11.5039063,121.377602 11.5390622,120.492195 11.6015625,119.054688 L11.53125,119.054688 L8.5859375,128 L6.3671875,128 Z M21.9765625,128 L21.515625,126.8125 L21.453125,126.8125 C21.0520813,127.317711 20.639325,127.667968 20.2148438,127.863281 C19.7903625,128.058595 19.2369826,128.15625 18.5546875,128.15625 C17.7161416,128.15625 17.055992,127.916669 16.5742188,127.4375 C16.0924455,126.958331 15.8515625,126.276046 15.8515625,125.390625 C15.8515625,124.463537 16.175778,123.77995 16.8242188,123.339844 C17.4726595,122.899737 18.4505143,122.65625 19.7578125,122.609375 L21.2734375,122.5625 L21.2734375,122.179688 C21.2734375,121.294266 20.820317,120.851562 19.9140625,120.851562 C19.2161423,120.851562 18.395838,121.062498 17.453125,121.484375 L16.6640625,119.875 C17.6692759,119.348956 18.783848,119.085938 20.0078125,119.085938 C21.1796934,119.085938 22.0781219,119.341143 22.703125,119.851562 C23.3281281,120.361982 23.640625,121.138016 23.640625,122.179688 L23.640625,128 L21.9765625,128 Z M21.2734375,123.953125 L20.3515625,123.984375 C19.6588507,124.005208 19.1432309,124.130207 18.8046875,124.359375 C18.4661441,124.588543 18.296875,124.937498 18.296875,125.40625 C18.296875,126.078128 18.6822878,126.414062 19.453125,126.414062 C20.0052111,126.414062 20.4466129,126.25521 20.7773438,125.9375 C21.1080746,125.61979 21.2734375,125.197919 21.2734375,124.671875 L21.2734375,123.953125 Z M32.1875,125.40625 C32.1875,126.302088 31.8763052,126.984373 31.2539062,127.453125 C30.6315073,127.921877 29.700527,128.15625 28.4609375,128.15625 C27.8255177,128.15625 27.2838564,128.113282 26.8359375,128.027344 C26.3880186,127.941406 25.968752,127.815105 25.578125,127.648438 L25.578125,125.679688 C26.0208355,125.888022 26.5195285,126.062499 27.0742188,126.203125 C27.628909,126.343751 28.1171854,126.414062 28.5390625,126.414062 C29.4036502,126.414062 29.8359375,126.164065 29.8359375,125.664062 C29.8359375,125.476562 29.7786464,125.324219 29.6640625,125.207031 C29.5494786,125.089843 29.3515639,124.957032 29.0703125,124.808594 C28.7890611,124.660156 28.4140648,124.48698 27.9453125,124.289062 C27.2734341,124.007811 26.7799495,123.747397 26.4648438,123.507812 C26.149738,123.268228 25.9205736,122.993491 25.7773438,122.683594 C25.6341139,122.373696 25.5625,121.99219 25.5625,121.539062 C25.5625,120.763017 25.8632782,120.162763 26.4648438,119.738281 C27.0664093,119.3138 27.9192653,119.101562 29.0234375,119.101562 C30.0755261,119.101562 31.0989534,119.330727 32.09375,119.789062 L31.375,121.507812 C30.9374978,121.320312 30.5286477,121.166667 30.1484375,121.046875 C29.7682273,120.927083 29.3802103,120.867188 28.984375,120.867188 C28.2812465,120.867188 27.9296875,121.05729 27.9296875,121.4375 C27.9296875,121.651043 28.0429676,121.835937 28.2695312,121.992188 C28.4960949,122.148438 28.9921837,122.380207 29.7578125,122.6875 C30.4401076,122.963543 30.9401026,123.221353 31.2578125,123.460938 C31.5755224,123.700522 31.8098951,123.976561 31.9609375,124.289062 C32.1119799,124.601564 32.1875,124.973956 32.1875,125.40625 Z M37.7265625,126.257812 C38.1432312,126.257812 38.6432262,126.166668 39.2265625,125.984375 L39.2265625,127.757812 C38.6328095,128.023439 37.9036502,128.15625 37.0390625,128.15625 C36.0859327,128.15625 35.3919293,127.915367 34.9570312,127.433594 C34.5221332,126.951821 34.3046875,126.229171 34.3046875,125.265625 L34.3046875,121.054688 L33.1640625,121.054688 L33.1640625,120.046875 L34.4765625,119.25 L35.1640625,117.40625 L36.6875,117.40625 L36.6875,119.265625 L39.1328125,119.265625 L39.1328125,121.054688 L36.6875,121.054688 L36.6875,125.265625 C36.6875,125.604168 36.7825511,125.854166 36.9726562,126.015625 C37.1627614,126.177084 37.4140609,126.257812 37.7265625,126.257812 Z M44.609375,120.796875 C44.1041641,120.796875 43.7083348,120.95703 43.421875,121.277344 C43.1354152,121.597658 42.9713544,122.05208 42.9296875,122.640625 L46.2734375,122.640625 C46.2630208,122.05208 46.1093765,121.597658 45.8125,121.277344 C45.5156235,120.95703 45.1145859,120.796875 44.609375,120.796875 Z M44.9453125,128.15625 C43.5390555,128.15625 42.4401081,127.768233 41.6484375,126.992188 C40.8567669,126.216142 40.4609375,125.117195 40.4609375,123.695312 C40.4609375,122.231764 40.8268193,121.100264 41.5585938,120.300781 C42.2903682,119.501298 43.3020769,119.101562 44.59375,119.101562 C45.8281312,119.101562 46.7890591,119.453121 47.4765625,120.15625 C48.1640659,120.859379 48.5078125,121.830723 48.5078125,123.070312 L48.5078125,124.226562 L42.875,124.226562 C42.9010418,124.903649 43.1015606,125.43229 43.4765625,125.8125 C43.8515644,126.19271 44.3776008,126.382812 45.0546875,126.382812 C45.5807318,126.382812 46.0781227,126.328126 46.546875,126.21875 C47.0156273,126.109374 47.5052058,125.934897 48.015625,125.695312 L48.015625,127.539062 C47.5989563,127.747397 47.1536482,127.902343 46.6796875,128.003906 C46.2057268,128.105469 45.6276076,128.15625 44.9453125,128.15625 Z M55.3203125,119.101562 C55.6432308,119.101562 55.9114573,119.125 56.125,119.171875 L55.9453125,121.40625 C55.7526032,121.354166 55.5182305,121.328125 55.2421875,121.328125 C54.481767,121.328125 53.889325,121.523436 53.4648438,121.914062 C53.0403625,122.304689 52.828125,122.851559 52.828125,123.554688 L52.828125,128 L50.4453125,128 L50.4453125,119.265625 L52.25,119.265625 L52.6015625,120.734375 L52.71875,120.734375 C52.9895847,120.244789 53.3554664,119.850262 53.8164062,119.550781 C54.2773461,119.251301 54.7786431,119.101562 55.3203125,119.101562 Z M68.03125,128 L64.953125,128 L59.984375,119.359375 L59.9140625,119.359375 C60.0130213,120.885424 60.0625,121.973955 60.0625,122.625 L60.0625,128 L57.8984375,128 L57.8984375,116.578125 L60.953125,116.578125 L65.9140625,125.132812 L65.96875,125.132812 C65.8906246,123.64843 65.8515625,122.598961 65.8515625,121.984375 L65.8515625,116.578125 L68.03125,116.578125 L68.03125,128 Z M72.6171875,123.617188 C72.6171875,124.481775 72.7591132,125.135414 73.0429688,125.578125 C73.3268243,126.020836 73.7890593,126.242188 74.4296875,126.242188 C75.0651073,126.242188 75.522134,126.022138 75.8007812,125.582031 C76.0794285,125.141925 76.21875,124.486984 76.21875,123.617188 C76.21875,122.7526 76.0781264,122.104169 75.796875,121.671875 C75.5156236,121.239581 75.0546907,121.023438 74.4140625,121.023438 C73.7786427,121.023438 73.3203139,121.238279 73.0390625,121.667969 C72.7578111,122.097658 72.6171875,122.747391 72.6171875,123.617188 Z M78.65625,123.617188 C78.65625,125.03907 78.2812538,126.151038 77.53125,126.953125 C76.7812462,127.755212 75.7369859,128.15625 74.3984375,128.15625 C73.5598916,128.15625 72.8203157,127.972658 72.1796875,127.605469 C71.5390593,127.238279 71.0468767,126.710941 70.703125,126.023438 C70.3593733,125.335934 70.1875,124.533859 70.1875,123.617188 C70.1875,122.190097 70.5598921,121.080733 71.3046875,120.289062 C72.0494829,119.497392 73.0963474,119.101562 74.4453125,119.101562 C75.2838584,119.101562 76.0234343,119.283852 76.6640625,119.648438 C77.3046907,120.013023 77.7968733,120.536455 78.140625,121.21875 C78.4843767,121.901045 78.65625,122.700516 78.65625,123.617188 Z M83.390625,128.15625 C82.3645782,128.15625 81.5585967,127.757816 80.9726562,126.960938 C80.3867158,126.164059 80.09375,125.059903 80.09375,123.648438 C80.09375,122.216139 80.3919241,121.100264 80.9882812,120.300781 C81.5846384,119.501298 82.4062448,119.101562 83.453125,119.101562 C84.5520888,119.101562 85.3906221,119.528642 85.96875,120.382812 L86.046875,120.382812 C85.9270827,119.731768 85.8671875,119.151044 85.8671875,118.640625 L85.8671875,115.84375 L88.2578125,115.84375 L88.2578125,128 L86.4296875,128 L85.96875,126.867188 L85.8671875,126.867188 C85.3255181,127.726567 84.5000055,128.15625 83.390625,128.15625 Z M84.2265625,126.257812 C84.8359405,126.257812 85.2825507,126.080731 85.5664062,125.726562 C85.8502618,125.372394 86.0052082,124.770838 86.03125,123.921875 L86.03125,123.664062 C86.03125,122.726558 85.8867202,122.05469 85.5976562,121.648438 C85.3085923,121.242185 84.8385449,121.039062 84.1875,121.039062 C83.6562473,121.039062 83.2434911,121.264321 82.9492188,121.714844 C82.6549464,122.165367 82.5078125,122.820308 82.5078125,123.679688 C82.5078125,124.539067 82.6562485,125.183592 82.953125,125.613281 C83.2500015,126.042971 83.6744764,126.257812 84.2265625,126.257812 Z M94.3671875,120.796875 C93.8619766,120.796875 93.4661473,120.95703 93.1796875,121.277344 C92.8932277,121.597658 92.7291669,122.05208 92.6875,122.640625 L96.03125,122.640625 C96.0208333,122.05208 95.867189,121.597658 95.5703125,121.277344 C95.273436,120.95703 94.8723984,120.796875 94.3671875,120.796875 Z M94.703125,128.15625 C93.296868,128.15625 92.1979206,127.768233 91.40625,126.992188 C90.6145794,126.216142 90.21875,125.117195 90.21875,123.695312 C90.21875,122.231764 90.5846318,121.100264 91.3164062,120.300781 C92.0481807,119.501298 93.0598894,119.101562 94.3515625,119.101562 C95.5859437,119.101562 96.5468716,119.453121 97.234375,120.15625 C97.9218784,120.859379 98.265625,121.830723 98.265625,123.070312 L98.265625,124.226562 L92.6328125,124.226562 C92.6588543,124.903649 92.8593731,125.43229 93.234375,125.8125 C93.6093769,126.19271 94.1354133,126.382812 94.8125,126.382812 C95.3385443,126.382812 95.8359352,126.328126 96.3046875,126.21875 C96.7734398,126.109374 97.2630183,125.934897 97.7734375,125.695312 L97.7734375,127.539062 C97.3567688,127.747397 96.9114607,127.902343 96.4375,128.003906 C95.9635393,128.105469 95.3854201,128.15625 94.703125,128.15625 Z M106.296875,125.40625 C106.296875,126.302088 105.98568,126.984373 105.363281,127.453125 C104.740882,127.921877 103.809902,128.15625 102.570312,128.15625 C101.934893,128.15625 101.393231,128.113282 100.945312,128.027344 C100.497394,127.941406 100.078127,127.815105 99.6875,127.648438 L99.6875,125.679688 C100.130211,125.888022 100.628903,126.062499 101.183594,126.203125 C101.738284,126.343751 102.22656,126.414062 102.648438,126.414062 C103.513025,126.414062 103.945312,126.164065 103.945312,125.664062 C103.945312,125.476562 103.888021,125.324219 103.773438,125.207031 C103.658854,125.089843 103.460939,124.957032 103.179688,124.808594 C102.898436,124.660156 102.52344,124.48698 102.054688,124.289062 C101.382809,124.007811 100.889324,123.747397 100.574219,123.507812 C100.259113,123.268228 100.029949,122.993491 99.8867188,122.683594 C99.7434889,122.373696 99.671875,121.99219 99.671875,121.539062 C99.671875,120.763017 99.9726532,120.162763 100.574219,119.738281 C101.175784,119.3138 102.02864,119.101562 103.132812,119.101562 C104.184901,119.101562 105.208328,119.330727 106.203125,119.789062 L105.484375,121.507812 C105.046873,121.320312 104.638023,121.166667 104.257812,121.046875 C103.877602,120.927083 103.489585,120.867188 103.09375,120.867188 C102.390621,120.867188 102.039062,121.05729 102.039062,121.4375 C102.039062,121.651043 102.152343,121.835937 102.378906,121.992188 C102.60547,122.148438 103.101559,122.380207 103.867188,122.6875 C104.549483,122.963543 105.049478,123.221353 105.367188,123.460938 C105.684897,123.700522 105.91927,123.976561 106.070312,124.289062 C106.221355,124.601564 106.296875,124.973956 106.296875,125.40625 Z" id="MasterNodes" fill="#2A2A2A"></path>
                </g>
            </g>
        </g>
    </g>
</svg>