<?xml version="1.0" encoding="UTF-8"?>
<svg width="880px" height="940px" viewBox="0 0 880 940" version="1.1" xmlns="http://www.w3.org/2000/svg" xmlns:xlink="http://www.w3.org/1999/xlink">
    <!-- Generator: Sketch 53.1 (72631) - https://sketchapp.com -->
    <title>Artboard Copy 4</title>
    <desc>Created with Sketch.</desc>
    <g id="Artboard-Copy-4" stroke="none" stroke-width="1" fill="none" fill-rule="evenodd">
        <g id="Group-2" transform="translate(37.000000, 75.000000)">
            <g id="Group-Copy" transform="translate(345.971698, 307.644231)" fill="#D2DBDD" fill-rule="nonzero">
                <g id="user-with-tie-svgrepo-com">
                    <path d="M51.4384648,105.937122 L51.4384648,111.702408 L61.5812607,111.702408 L61.5812607,105.937122 C59.9086249,106.261927 58.2180416,106.443289 56.5123262,106.443289 C54.8069626,106.443646 53.1114525,106.261927 51.4384648,105.937122 Z" id="Path"></path>
                    <path d="M105.681926,97.8648778 L84.2726976,91.5239085 C82.8922039,93.2402962 81.4440603,94.808292 79.9561226,96.2498134 L85.5287442,97.9018859 C81.8058249,112.618914 71.712593,152.816232 68.8723793,167.173239 C66.5918154,167.721534 64.2721809,168.159524 61.8903229,168.392352 L67.9162355,154.260269 L62.1229375,115.779338 L51.621997,115.779338 L45.8283372,154.260269 L51.8535263,168.392352 C49.426086,168.15665 47.0728074,167.704288 44.7589611,167.142698 C41.9133209,152.773835 31.8421567,112.663467 28.1134492,97.9324266 L33.7142884,96.2724494 C32.2205625,94.8309281 30.7785689,93.2658067 29.3919252,91.5465445 L8.06228547,97.8652371 C3.27614005,99.281248 0,103.647491 0,108.603709 L0,117.915031 C0,149.110387 25.459906,174.399889 56.8722864,174.399889 C88.284305,174.399889 113.744211,149.110387 113.744211,117.915031 L113.744211,108.603709 C113.744573,103.647491 110.468794,99.281248 105.681926,97.8648778 Z" id="Path"></path>
                    <path d="M92.8272479,45.4477818 C93.8773085,38.8393261 93.4089699,31.7467002 92.4914308,26.2039964 C90.5317751,14.3580591 85.8274462,6.02145462 85.8274462,6.02145462 L83.630552,15.2271845 L83.4160623,16.132749 C83.3990909,15.7629468 83.3427603,15.3538192 83.30304,14.9562368 C82.7780097,9.93450316 80.5244238,3.132668 80.5244238,3.132668 C75.4647786,5.53908823 67.1632339,5.29916777 67.1632339,5.29916777 C69.4615955,3.61214813 75.4647786,1.93054024 75.4647786,1.93054024 C60.5111654,-2.77803403 50.9501259,2.14773139 46.2967111,5.85477304 C45.2910651,6.65895755 44.512186,7.39531492 43.9586293,7.97328872 L45.6640749,6.00702332 L49.2053211,1.93017945 C42.0664982,2.629737 36.8653043,7.44834997 33.7028455,11.3841278 C31.4214553,14.2224049 30.168099,16.6147546 30.168099,16.6147546 L30.7779863,13.480275 L32.0934507,6.74338069 C27.1861871,10.6647272 24.2270241,16.3665361 22.4139725,22.1809092 C19.6819374,30.9591117 19.3973955,41.6436896 19.4912799,45.430825 C16.6469447,46.6055333 14.5056589,49.2576465 13.5704262,52.7853792 C12.6839411,56.1514812 12.9154022,60.075714 14.2254502,63.8307398 C16.2923506,69.7605633 20.6911943,74.1195392 25.4807415,75.095817 C31.4272328,87.841907 42.366206,100.892498 56.1390427,100.892498 C69.9017687,100.892498 80.8407419,87.8617501 86.7872333,75.1239581 C91.5023951,74.2014369 95.975263,69.8168454 98.0645512,63.8307398 C100.865555,55.7661654 98.5624995,47.8296688 92.8272479,45.4477818 Z M92.6044531,61.9323015 C90.882036,66.8638395 87.3808713,69.5238899 84.8961854,69.5238899 C83.5121132,69.693097 82.6537934,70.1902554 82.1912324,71.2588936 C77.1590303,82.7920324 67.672015,95.1152851 56.1397649,95.1152851 C44.608598,95.1152851 35.1208605,82.7923931 30.0886584,71.2588936 C29.6311527,70.2039652 28.468792,69.5238899 27.3161808,69.5238899 C24.8993806,69.5238899 21.4036323,66.8638395 19.6866316,61.9323015 C18.7658426,59.2859608 18.5737408,56.4902561 19.1616013,54.261341 C19.4497541,53.1865695 20.1726638,51.2964292 21.8553605,50.7123221 C22.0362685,50.6502675 22.3919458,50.6138285 22.566354,50.5968717 C23.9952019,50.4586919 25.1080927,49.293364 25.1759784,47.8603353 C25.2384476,46.5258003 25.398051,45.2378063 25.7183411,43.9754278 C30.0283558,26.9793183 44.851253,25.7645632 44.851253,25.7645632 C42.185298,32.0248636 37.8770889,34.6712043 37.8770889,34.6712043 C52.090821,28.8932702 56.5185522,22.6329698 56.5185522,22.6329698 C65.9781244,35.7542738 79.0118022,41.4474239 86.539523,43.7806052 C86.759429,45.1292107 87.036749,46.4579732 87.1042735,47.8603353 C87.1721592,49.293364 88.2846889,50.4586919 89.7138979,50.5968717 C89.887945,50.6138285 90.2443445,50.6502675 90.4303078,50.7123221 C92.9886568,51.6034553 94.5135556,56.4336133 92.6044531,61.9323015 Z" id="Shape"></path>
                </g>
            </g>
            <g id="Group-Copy-2" transform="translate(345.971698, 0.000000)" fill="#D2DBDD" fill-rule="nonzero">
                <g id="user-with-tie-svgrepo-com">
                    <path d="M51.4384648,105.937122 L51.4384648,111.702408 L61.5812607,111.702408 L61.5812607,105.937122 C59.9086249,106.261927 58.2180416,106.443289 56.5123262,106.443289 C54.8069626,106.443646 53.1114525,106.261927 51.4384648,105.937122 Z" id="Path"></path>
                    <path d="M105.681926,97.8648778 L84.2726976,91.5239085 C82.8922039,93.2402962 81.4440603,94.808292 79.9561226,96.2498134 L85.5287442,97.9018859 C81.8058249,112.618914 71.712593,152.816232 68.8723793,167.173239 C66.5918154,167.721534 64.2721809,168.159524 61.8903229,168.392352 L67.9162355,154.260269 L62.1229375,115.779338 L51.621997,115.779338 L45.8283372,154.260269 L51.8535263,168.392352 C49.426086,168.15665 47.0728074,167.704288 44.7589611,167.142698 C41.9133209,152.773835 31.8421567,112.663467 28.1134492,97.9324266 L33.7142884,96.2724494 C32.2205625,94.8309281 30.7785689,93.2658067 29.3919252,91.5465445 L8.06228547,97.8652371 C3.27614005,99.281248 0,103.647491 0,108.603709 L0,117.915031 C0,149.110387 25.459906,174.399889 56.8722864,174.399889 C88.284305,174.399889 113.744211,149.110387 113.744211,117.915031 L113.744211,108.603709 C113.744573,103.647491 110.468794,99.281248 105.681926,97.8648778 Z" id="Path"></path>
                    <path d="M92.8272479,45.4477818 C93.8773085,38.8393261 93.4089699,31.7467002 92.4914308,26.2039964 C90.5317751,14.3580591 85.8274462,6.02145462 85.8274462,6.02145462 L83.630552,15.2271845 L83.4160623,16.132749 C83.3990909,15.7629468 83.3427603,15.3538192 83.30304,14.9562368 C82.7780097,9.93450316 80.5244238,3.132668 80.5244238,3.132668 C75.4647786,5.53908823 67.1632339,5.29916777 67.1632339,5.29916777 C69.4615955,3.61214813 75.4647786,1.93054024 75.4647786,1.93054024 C60.5111654,-2.77803403 50.9501259,2.14773139 46.2967111,5.85477304 C45.2910651,6.65895755 44.512186,7.39531492 43.9586293,7.97328872 L45.6640749,6.00702332 L49.2053211,1.93017945 C42.0664982,2.629737 36.8653043,7.44834997 33.7028455,11.3841278 C31.4214553,14.2224049 30.168099,16.6147546 30.168099,16.6147546 L30.7779863,13.480275 L32.0934507,6.74338069 C27.1861871,10.6647272 24.2270241,16.3665361 22.4139725,22.1809092 C19.6819374,30.9591117 19.3973955,41.6436896 19.4912799,45.430825 C16.6469447,46.6055333 14.5056589,49.2576465 13.5704262,52.7853792 C12.6839411,56.1514812 12.9154022,60.075714 14.2254502,63.8307398 C16.2923506,69.7605633 20.6911943,74.1195392 25.4807415,75.095817 C31.4272328,87.841907 42.366206,100.892498 56.1390427,100.892498 C69.9017687,100.892498 80.8407419,87.8617501 86.7872333,75.1239581 C91.5023951,74.2014369 95.975263,69.8168454 98.0645512,63.8307398 C100.865555,55.7661654 98.5624995,47.8296688 92.8272479,45.4477818 Z M92.6044531,61.9323015 C90.882036,66.8638395 87.3808713,69.5238899 84.8961854,69.5238899 C83.5121132,69.693097 82.6537934,70.1902554 82.1912324,71.2588936 C77.1590303,82.7920324 67.672015,95.1152851 56.1397649,95.1152851 C44.608598,95.1152851 35.1208605,82.7923931 30.0886584,71.2588936 C29.6311527,70.2039652 28.468792,69.5238899 27.3161808,69.5238899 C24.8993806,69.5238899 21.4036323,66.8638395 19.6866316,61.9323015 C18.7658426,59.2859608 18.5737408,56.4902561 19.1616013,54.261341 C19.4497541,53.1865695 20.1726638,51.2964292 21.8553605,50.7123221 C22.0362685,50.6502675 22.3919458,50.6138285 22.566354,50.5968717 C23.9952019,50.4586919 25.1080927,49.293364 25.1759784,47.8603353 C25.2384476,46.5258003 25.398051,45.2378063 25.7183411,43.9754278 C30.0283558,26.9793183 44.851253,25.7645632 44.851253,25.7645632 C42.185298,32.0248636 37.8770889,34.6712043 37.8770889,34.6712043 C52.090821,28.8932702 56.5185522,22.6329698 56.5185522,22.6329698 C65.9781244,35.7542738 79.0118022,41.4474239 86.539523,43.7806052 C86.759429,45.1292107 87.036749,46.4579732 87.1042735,47.8603353 C87.1721592,49.293364 88.2846889,50.4586919 89.7138979,50.5968717 C89.887945,50.6138285 90.2443445,50.6502675 90.4303078,50.7123221 C92.9886568,51.6034553 94.5135556,56.4336133 92.6044531,61.9323015 Z" id="Shape"></path>
                </g>
            </g>
            <g id="Group-Copy-3" transform="translate(345.971698, 615.288462)" fill="#D2DBDD" fill-rule="nonzero">
                <g id="user-with-tie-svgrepo-com">
                    <path d="M51.4384648,105.937122 L51.4384648,111.702408 L61.5812607,111.702408 L61.5812607,105.937122 C59.9086249,106.261927 58.2180416,106.443289 56.5123262,106.443289 C54.8069626,106.443646 53.1114525,106.261927 51.4384648,105.937122 Z" id="Path"></path>
                    <path d="M105.681926,97.8648778 L84.2726976,91.5239085 C82.8922039,93.2402962 81.4440603,94.808292 79.9561226,96.2498134 L85.5287442,97.9018859 C81.8058249,112.618914 71.712593,152.816232 68.8723793,167.173239 C66.5918154,167.721534 64.2721809,168.159524 61.8903229,168.392352 L67.9162355,154.260269 L62.1229375,115.779338 L51.621997,115.779338 L45.8283372,154.260269 L51.8535263,168.392352 C49.426086,168.15665 47.0728074,167.704288 44.7589611,167.142698 C41.9133209,152.773835 31.8421567,112.663467 28.1134492,97.9324266 L33.7142884,96.2724494 C32.2205625,94.8309281 30.7785689,93.2658067 29.3919252,91.5465445 L8.06228547,97.8652371 C3.27614005,99.281248 0,103.647491 0,108.603709 L0,117.915031 C0,149.110387 25.459906,174.399889 56.8722864,174.399889 C88.284305,174.399889 113.744211,149.110387 113.744211,117.915031 L113.744211,108.603709 C113.744573,103.647491 110.468794,99.281248 105.681926,97.8648778 Z" id="Path"></path>
                    <path d="M92.8272479,45.4477818 C93.8773085,38.8393261 93.4089699,31.7467002 92.4914308,26.2039964 C90.5317751,14.3580591 85.8274462,6.02145462 85.8274462,6.02145462 L83.630552,15.2271845 L83.4160623,16.132749 C83.3990909,15.7629468 83.3427603,15.3538192 83.30304,14.9562368 C82.7780097,9.93450316 80.5244238,3.132668 80.5244238,3.132668 C75.4647786,5.53908823 67.1632339,5.29916777 67.1632339,5.29916777 C69.4615955,3.61214813 75.4647786,1.93054024 75.4647786,1.93054024 C60.5111654,-2.77803403 50.9501259,2.14773139 46.2967111,5.85477304 C45.2910651,6.65895755 44.512186,7.39531492 43.9586293,7.97328872 L45.6640749,6.00702332 L49.2053211,1.93017945 C42.0664982,2.629737 36.8653043,7.44834997 33.7028455,11.3841278 C31.4214553,14.2224049 30.168099,16.6147546 30.168099,16.6147546 L30.7779863,13.480275 L32.0934507,6.74338069 C27.1861871,10.6647272 24.2270241,16.3665361 22.4139725,22.1809092 C19.6819374,30.9591117 19.3973955,41.6436896 19.4912799,45.430825 C16.6469447,46.6055333 14.5056589,49.2576465 13.5704262,52.7853792 C12.6839411,56.1514812 12.9154022,60.075714 14.2254502,63.8307398 C16.2923506,69.7605633 20.6911943,74.1195392 25.4807415,75.095817 C31.4272328,87.841907 42.366206,100.892498 56.1390427,100.892498 C69.9017687,100.892498 80.8407419,87.8617501 86.7872333,75.1239581 C91.5023951,74.2014369 95.975263,69.8168454 98.0645512,63.8307398 C100.865555,55.7661654 98.5624995,47.8296688 92.8272479,45.4477818 Z M92.6044531,61.9323015 C90.882036,66.8638395 87.3808713,69.5238899 84.8961854,69.5238899 C83.5121132,69.693097 82.6537934,70.1902554 82.1912324,71.2588936 C77.1590303,82.7920324 67.672015,95.1152851 56.1397649,95.1152851 C44.608598,95.1152851 35.1208605,82.7923931 30.0886584,71.2588936 C29.6311527,70.2039652 28.468792,69.5238899 27.3161808,69.5238899 C24.8993806,69.5238899 21.4036323,66.8638395 19.6866316,61.9323015 C18.7658426,59.2859608 18.5737408,56.4902561 19.1616013,54.261341 C19.4497541,53.1865695 20.1726638,51.2964292 21.8553605,50.7123221 C22.0362685,50.6502675 22.3919458,50.6138285 22.566354,50.5968717 C23.9952019,50.4586919 25.1080927,49.293364 25.1759784,47.8603353 C25.2384476,46.5258003 25.398051,45.2378063 25.7183411,43.9754278 C30.0283558,26.9793183 44.851253,25.7645632 44.851253,25.7645632 C42.185298,32.0248636 37.8770889,34.6712043 37.8770889,34.6712043 C52.090821,28.8932702 56.5185522,22.6329698 56.5185522,22.6329698 C65.9781244,35.7542738 79.0118022,41.4474239 86.539523,43.7806052 C86.759429,45.1292107 87.036749,46.4579732 87.1042735,47.8603353 C87.1721592,49.293364 88.2846889,50.4586919 89.7138979,50.5968717 C89.887945,50.6138285 90.2443445,50.6502675 90.4303078,50.7123221 C92.9886568,51.6034553 94.5135556,56.4336133 92.6044531,61.9323015 Z" id="Shape"></path>
                </g>
            </g>
            <g id="Group" transform="translate(691.943396, 153.822115)" fill="#D2DBDD" fill-rule="nonzero">
                <g id="Group-Copy">
                    <g id="user-with-tie-svgrepo-com">
                        <path d="M51.4384648,105.937122 L51.4384648,111.702408 L61.5812607,111.702408 L61.5812607,105.937122 C59.9086249,106.261927 58.2180416,106.443289 56.5123262,106.443289 C54.8069626,106.443646 53.1114525,106.261927 51.4384648,105.937122 Z" id="Path"></path>
                        <path d="M105.681926,97.8648778 L84.2726976,91.5239085 C82.8922039,93.2402962 81.4440603,94.808292 79.9561226,96.2498134 L85.5287442,97.9018859 C81.8058249,112.618914 71.712593,152.816232 68.8723793,167.173239 C66.5918154,167.721534 64.2721809,168.159524 61.8903229,168.392352 L67.9162355,154.260269 L62.1229375,115.779338 L51.621997,115.779338 L45.8283372,154.260269 L51.8535263,168.392352 C49.426086,168.15665 47.0728074,167.704288 44.7589611,167.142698 C41.9133209,152.773835 31.8421567,112.663467 28.1134492,97.9324266 L33.7142884,96.2724494 C32.2205625,94.8309281 30.7785689,93.2658067 29.3919252,91.5465445 L8.06228547,97.8652371 C3.27614005,99.281248 0,103.647491 0,108.603709 L0,117.915031 C0,149.110387 25.459906,174.399889 56.8722864,174.399889 C88.284305,174.399889 113.744211,149.110387 113.744211,117.915031 L113.744211,108.603709 C113.744573,103.647491 110.468794,99.281248 105.681926,97.8648778 Z" id="Path"></path>
                        <path d="M92.8272479,45.4477818 C93.8773085,38.8393261 93.4089699,31.7467002 92.4914308,26.2039964 C90.5317751,14.3580591 85.8274462,6.02145462 85.8274462,6.02145462 L83.630552,15.2271845 L83.4160623,16.132749 C83.3990909,15.7629468 83.3427603,15.3538192 83.30304,14.9562368 C82.7780097,9.93450316 80.5244238,3.132668 80.5244238,3.132668 C75.4647786,5.53908823 67.1632339,5.29916777 67.1632339,5.29916777 C69.4615955,3.61214813 75.4647786,1.93054024 75.4647786,1.93054024 C60.5111654,-2.77803403 50.9501259,2.14773139 46.2967111,5.85477304 C45.2910651,6.65895755 44.512186,7.39531492 43.9586293,7.97328872 L45.6640749,6.00702332 L49.2053211,1.93017945 C42.0664982,2.629737 36.8653043,7.44834997 33.7028455,11.3841278 C31.4214553,14.2224049 30.168099,16.6147546 30.168099,16.6147546 L30.7779863,13.480275 L32.0934507,6.74338069 C27.1861871,10.6647272 24.2270241,16.3665361 22.4139725,22.1809092 C19.6819374,30.9591117 19.3973955,41.6436896 19.4912799,45.430825 C16.6469447,46.6055333 14.5056589,49.2576465 13.5704262,52.7853792 C12.6839411,56.1514812 12.9154022,60.075714 14.2254502,63.8307398 C16.2923506,69.7605633 20.6911943,74.1195392 25.4807415,75.095817 C31.4272328,87.841907 42.366206,100.892498 56.1390427,100.892498 C69.9017687,100.892498 80.8407419,87.8617501 86.7872333,75.1239581 C91.5023951,74.2014369 95.975263,69.8168454 98.0645512,63.8307398 C100.865555,55.7661654 98.5624995,47.8296688 92.8272479,45.4477818 Z M92.6044531,61.9323015 C90.882036,66.8638395 87.3808713,69.5238899 84.8961854,69.5238899 C83.5121132,69.693097 82.6537934,70.1902554 82.1912324,71.2588936 C77.1590303,82.7920324 67.672015,95.1152851 56.1397649,95.1152851 C44.608598,95.1152851 35.1208605,82.7923931 30.0886584,71.2588936 C29.6311527,70.2039652 28.468792,69.5238899 27.3161808,69.5238899 C24.8993806,69.5238899 21.4036323,66.8638395 19.6866316,61.9323015 C18.7658426,59.2859608 18.5737408,56.4902561 19.1616013,54.261341 C19.4497541,53.1865695 20.1726638,51.2964292 21.8553605,50.7123221 C22.0362685,50.6502675 22.3919458,50.6138285 22.566354,50.5968717 C23.9952019,50.4586919 25.1080927,49.293364 25.1759784,47.8603353 C25.2384476,46.5258003 25.398051,45.2378063 25.7183411,43.9754278 C30.0283558,26.9793183 44.851253,25.7645632 44.851253,25.7645632 C42.185298,32.0248636 37.8770889,34.6712043 37.8770889,34.6712043 C52.090821,28.8932702 56.5185522,22.6329698 56.5185522,22.6329698 C65.9781244,35.7542738 79.0118022,41.4474239 86.539523,43.7806052 C86.759429,45.1292107 87.036749,46.4579732 87.1042735,47.8603353 C87.1721592,49.293364 88.2846889,50.4586919 89.7138979,50.5968717 C89.887945,50.6138285 90.2443445,50.6502675 90.4303078,50.7123221 C92.9886568,51.6034553 94.5135556,56.4336133 92.6044531,61.9323015 Z" id="Shape"></path>
                    </g>
                </g>
                <g id="Group-Copy-3" transform="translate(0.000000, 307.644231)">
                    <g id="user-with-tie-svgrepo-com">
                        <path d="M51.4384648,105.937122 L51.4384648,111.702408 L61.5812607,111.702408 L61.5812607,105.937122 C59.9086249,106.261927 58.2180416,106.443289 56.5123262,106.443289 C54.8069626,106.443646 53.1114525,106.261927 51.4384648,105.937122 Z" id="Path"></path>
                        <path d="M105.681926,97.8648778 L84.2726976,91.5239085 C82.8922039,93.2402962 81.4440603,94.808292 79.9561226,96.2498134 L85.5287442,97.9018859 C81.8058249,112.618914 71.712593,152.816232 68.8723793,167.173239 C66.5918154,167.721534 64.2721809,168.159524 61.8903229,168.392352 L67.9162355,154.260269 L62.1229375,115.779338 L51.621997,115.779338 L45.8283372,154.260269 L51.8535263,168.392352 C49.426086,168.15665 47.0728074,167.704288 44.7589611,167.142698 C41.9133209,152.773835 31.8421567,112.663467 28.1134492,97.9324266 L33.7142884,96.2724494 C32.2205625,94.8309281 30.7785689,93.2658067 29.3919252,91.5465445 L8.06228547,97.8652371 C3.27614005,99.281248 0,103.647491 0,108.603709 L0,117.915031 C0,149.110387 25.459906,174.399889 56.8722864,174.399889 C88.284305,174.399889 113.744211,149.110387 113.744211,117.915031 L113.744211,108.603709 C113.744573,103.647491 110.468794,99.281248 105.681926,97.8648778 Z" id="Path"></path>
                        <path d="M92.8272479,45.4477818 C93.8773085,38.8393261 93.4089699,31.7467002 92.4914308,26.2039964 C90.5317751,14.3580591 85.8274462,6.02145462 85.8274462,6.02145462 L83.630552,15.2271845 L83.4160623,16.132749 C83.3990909,15.7629468 83.3427603,15.3538192 83.30304,14.9562368 C82.7780097,9.93450316 80.5244238,3.132668 80.5244238,3.132668 C75.4647786,5.53908823 67.1632339,5.29916777 67.1632339,5.29916777 C69.4615955,3.61214813 75.4647786,1.93054024 75.4647786,1.93054024 C60.5111654,-2.77803403 50.9501259,2.14773139 46.2967111,5.85477304 C45.2910651,6.65895755 44.512186,7.39531492 43.9586293,7.97328872 L45.6640749,6.00702332 L49.2053211,1.93017945 C42.0664982,2.629737 36.8653043,7.44834997 33.7028455,11.3841278 C31.4214553,14.2224049 30.168099,16.6147546 30.168099,16.6147546 L30.7779863,13.480275 L32.0934507,6.74338069 C27.1861871,10.6647272 24.2270241,16.3665361 22.4139725,22.1809092 C19.6819374,30.9591117 19.3973955,41.6436896 19.4912799,45.430825 C16.6469447,46.6055333 14.5056589,49.2576465 13.5704262,52.7853792 C12.6839411,56.1514812 12.9154022,60.075714 14.2254502,63.8307398 C16.2923506,69.7605633 20.6911943,74.1195392 25.4807415,75.095817 C31.4272328,87.841907 42.366206,100.892498 56.1390427,100.892498 C69.9017687,100.892498 80.8407419,87.8617501 86.7872333,75.1239581 C91.5023951,74.2014369 95.975263,69.8168454 98.0645512,63.8307398 C100.865555,55.7661654 98.5624995,47.8296688 92.8272479,45.4477818 Z M92.6044531,61.9323015 C90.882036,66.8638395 87.3808713,69.5238899 84.8961854,69.5238899 C83.5121132,69.693097 82.6537934,70.1902554 82.1912324,71.2588936 C77.1590303,82.7920324 67.672015,95.1152851 56.1397649,95.1152851 C44.608598,95.1152851 35.1208605,82.7923931 30.0886584,71.2588936 C29.6311527,70.2039652 28.468792,69.5238899 27.3161808,69.5238899 C24.8993806,69.5238899 21.4036323,66.8638395 19.6866316,61.9323015 C18.7658426,59.2859608 18.5737408,56.4902561 19.1616013,54.261341 C19.4497541,53.1865695 20.1726638,51.2964292 21.8553605,50.7123221 C22.0362685,50.6502675 22.3919458,50.6138285 22.566354,50.5968717 C23.9952019,50.4586919 25.1080927,49.293364 25.1759784,47.8603353 C25.2384476,46.5258003 25.398051,45.2378063 25.7183411,43.9754278 C30.0283558,26.9793183 44.851253,25.7645632 44.851253,25.7645632 C42.185298,32.0248636 37.8770889,34.6712043 37.8770889,34.6712043 C52.090821,28.8932702 56.5185522,22.6329698 56.5185522,22.6329698 C65.9781244,35.7542738 79.0118022,41.4474239 86.539523,43.7806052 C86.759429,45.1292107 87.036749,46.4579732 87.1042735,47.8603353 C87.1721592,49.293364 88.2846889,50.4586919 89.7138979,50.5968717 C89.887945,50.6138285 90.2443445,50.6502675 90.4303078,50.7123221 C92.9886568,51.6034553 94.5135556,56.4336133 92.6044531,61.9323015 Z" id="Shape"></path>
                    </g>
                </g>
            </g>
            <g id="Group-Copy-4" transform="translate(0.000000, 153.822115)" fill="#D2DBDD" fill-rule="nonzero">
                <g id="Group-Copy">
                    <g id="user-with-tie-svgrepo-com">
                        <path d="M51.4384648,105.937122 L51.4384648,111.702408 L61.5812607,111.702408 L61.5812607,105.937122 C59.9086249,106.261927 58.2180416,106.443289 56.5123262,106.443289 C54.8069626,106.443646 53.1114525,106.261927 51.4384648,105.937122 Z" id="Path"></path>
                        <path d="M105.681926,97.8648778 L84.2726976,91.5239085 C82.8922039,93.2402962 81.4440603,94.808292 79.9561226,96.2498134 L85.5287442,97.9018859 C81.8058249,112.618914 71.712593,152.816232 68.8723793,167.173239 C66.5918154,167.721534 64.2721809,168.159524 61.8903229,168.392352 L67.9162355,154.260269 L62.1229375,115.779338 L51.621997,115.779338 L45.8283372,154.260269 L51.8535263,168.392352 C49.426086,168.15665 47.0728074,167.704288 44.7589611,167.142698 C41.9133209,152.773835 31.8421567,112.663467 28.1134492,97.9324266 L33.7142884,96.2724494 C32.2205625,94.8309281 30.7785689,93.2658067 29.3919252,91.5465445 L8.06228547,97.8652371 C3.27614005,99.281248 0,103.647491 0,108.603709 L0,117.915031 C0,149.110387 25.459906,174.399889 56.8722864,174.399889 C88.284305,174.399889 113.744211,149.110387 113.744211,117.915031 L113.744211,108.603709 C113.744573,103.647491 110.468794,99.281248 105.681926,97.8648778 Z" id="Path"></path>
                        <path d="M92.8272479,45.4477818 C93.8773085,38.8393261 93.4089699,31.7467002 92.4914308,26.2039964 C90.5317751,14.3580591 85.8274462,6.02145462 85.8274462,6.02145462 L83.630552,15.2271845 L83.4160623,16.132749 C83.3990909,15.7629468 83.3427603,15.3538192 83.30304,14.9562368 C82.7780097,9.93450316 80.5244238,3.132668 80.5244238,3.132668 C75.4647786,5.53908823 67.1632339,5.29916777 67.1632339,5.29916777 C69.4615955,3.61214813 75.4647786,1.93054024 75.4647786,1.93054024 C60.5111654,-2.77803403 50.9501259,2.14773139 46.2967111,5.85477304 C45.2910651,6.65895755 44.512186,7.39531492 43.9586293,7.97328872 L45.6640749,6.00702332 L49.2053211,1.93017945 C42.0664982,2.629737 36.8653043,7.44834997 33.7028455,11.3841278 C31.4214553,14.2224049 30.168099,16.6147546 30.168099,16.6147546 L30.7779863,13.480275 L32.0934507,6.74338069 C27.1861871,10.6647272 24.2270241,16.3665361 22.4139725,22.1809092 C19.6819374,30.9591117 19.3973955,41.6436896 19.4912799,45.430825 C16.6469447,46.6055333 14.5056589,49.2576465 13.5704262,52.7853792 C12.6839411,56.1514812 12.9154022,60.075714 14.2254502,63.8307398 C16.2923506,69.7605633 20.6911943,74.1195392 25.4807415,75.095817 C31.4272328,87.841907 42.366206,100.892498 56.1390427,100.892498 C69.9017687,100.892498 80.8407419,87.8617501 86.7872333,75.1239581 C91.5023951,74.2014369 95.975263,69.8168454 98.0645512,63.8307398 C100.865555,55.7661654 98.5624995,47.8296688 92.8272479,45.4477818 Z M92.6044531,61.9323015 C90.882036,66.8638395 87.3808713,69.5238899 84.8961854,69.5238899 C83.5121132,69.693097 82.6537934,70.1902554 82.1912324,71.2588936 C77.1590303,82.7920324 67.672015,95.1152851 56.1397649,95.1152851 C44.608598,95.1152851 35.1208605,82.7923931 30.0886584,71.2588936 C29.6311527,70.2039652 28.468792,69.5238899 27.3161808,69.5238899 C24.8993806,69.5238899 21.4036323,66.8638395 19.6866316,61.9323015 C18.7658426,59.2859608 18.5737408,56.4902561 19.1616013,54.261341 C19.4497541,53.1865695 20.1726638,51.2964292 21.8553605,50.7123221 C22.0362685,50.6502675 22.3919458,50.6138285 22.566354,50.5968717 C23.9952019,50.4586919 25.1080927,49.293364 25.1759784,47.8603353 C25.2384476,46.5258003 25.398051,45.2378063 25.7183411,43.9754278 C30.0283558,26.9793183 44.851253,25.7645632 44.851253,25.7645632 C42.185298,32.0248636 37.8770889,34.6712043 37.8770889,34.6712043 C52.090821,28.8932702 56.5185522,22.6329698 56.5185522,22.6329698 C65.9781244,35.7542738 79.0118022,41.4474239 86.539523,43.7806052 C86.759429,45.1292107 87.036749,46.4579732 87.1042735,47.8603353 C87.1721592,49.293364 88.2846889,50.4586919 89.7138979,50.5968717 C89.887945,50.6138285 90.2443445,50.6502675 90.4303078,50.7123221 C92.9886568,51.6034553 94.5135556,56.4336133 92.6044531,61.9323015 Z" id="Shape"></path>
                    </g>
                </g>
                <g id="Group-Copy-3" transform="translate(0.000000, 307.644231)">
                    <g id="user-with-tie-svgrepo-com">
                        <path d="M51.4384648,105.937122 L51.4384648,111.702408 L61.5812607,111.702408 L61.5812607,105.937122 C59.9086249,106.261927 58.2180416,106.443289 56.5123262,106.443289 C54.8069626,106.443646 53.1114525,106.261927 51.4384648,105.937122 Z" id="Path"></path>
                        <path d="M105.681926,97.8648778 L84.2726976,91.5239085 C82.8922039,93.2402962 81.4440603,94.808292 79.9561226,96.2498134 L85.5287442,97.9018859 C81.8058249,112.618914 71.712593,152.816232 68.8723793,167.173239 C66.5918154,167.721534 64.2721809,168.159524 61.8903229,168.392352 L67.9162355,154.260269 L62.1229375,115.779338 L51.621997,115.779338 L45.8283372,154.260269 L51.8535263,168.392352 C49.426086,168.15665 47.0728074,167.704288 44.7589611,167.142698 C41.9133209,152.773835 31.8421567,112.663467 28.1134492,97.9324266 L33.7142884,96.2724494 C32.2205625,94.8309281 30.7785689,93.2658067 29.3919252,91.5465445 L8.06228547,97.8652371 C3.27614005,99.281248 0,103.647491 0,108.603709 L0,117.915031 C0,149.110387 25.459906,174.399889 56.8722864,174.399889 C88.284305,174.399889 113.744211,149.110387 113.744211,117.915031 L113.744211,108.603709 C113.744573,103.647491 110.468794,99.281248 105.681926,97.8648778 Z" id="Path"></path>
                        <path d="M92.8272479,45.4477818 C93.8773085,38.8393261 93.4089699,31.7467002 92.4914308,26.2039964 C90.5317751,14.3580591 85.8274462,6.02145462 85.8274462,6.02145462 L83.630552,15.2271845 L83.4160623,16.132749 C83.3990909,15.7629468 83.3427603,15.3538192 83.30304,14.9562368 C82.7780097,9.93450316 80.5244238,3.132668 80.5244238,3.132668 C75.4647786,5.53908823 67.1632339,5.29916777 67.1632339,5.29916777 C69.4615955,3.61214813 75.4647786,1.93054024 75.4647786,1.93054024 C60.5111654,-2.77803403 50.9501259,2.14773139 46.2967111,5.85477304 C45.2910651,6.65895755 44.512186,7.39531492 43.9586293,7.97328872 L45.6640749,6.00702332 L49.2053211,1.93017945 C42.0664982,2.629737 36.8653043,7.44834997 33.7028455,11.3841278 C31.4214553,14.2224049 30.168099,16.6147546 30.168099,16.6147546 L30.7779863,13.480275 L32.0934507,6.74338069 C27.1861871,10.6647272 24.2270241,16.3665361 22.4139725,22.1809092 C19.6819374,30.9591117 19.3973955,41.6436896 19.4912799,45.430825 C16.6469447,46.6055333 14.5056589,49.2576465 13.5704262,52.7853792 C12.6839411,56.1514812 12.9154022,60.075714 14.2254502,63.8307398 C16.2923506,69.7605633 20.6911943,74.1195392 25.4807415,75.095817 C31.4272328,87.841907 42.366206,100.892498 56.1390427,100.892498 C69.9017687,100.892498 80.8407419,87.8617501 86.7872333,75.1239581 C91.5023951,74.2014369 95.975263,69.8168454 98.0645512,63.8307398 C100.865555,55.7661654 98.5624995,47.8296688 92.8272479,45.4477818 Z M92.6044531,61.9323015 C90.882036,66.8638395 87.3808713,69.5238899 84.8961854,69.5238899 C83.5121132,69.693097 82.6537934,70.1902554 82.1912324,71.2588936 C77.1590303,82.7920324 67.672015,95.1152851 56.1397649,95.1152851 C44.608598,95.1152851 35.1208605,82.7923931 30.0886584,71.2588936 C29.6311527,70.2039652 28.468792,69.5238899 27.3161808,69.5238899 C24.8993806,69.5238899 21.4036323,66.8638395 19.6866316,61.9323015 C18.7658426,59.2859608 18.5737408,56.4902561 19.1616013,54.261341 C19.4497541,53.1865695 20.1726638,51.2964292 21.8553605,50.7123221 C22.0362685,50.6502675 22.3919458,50.6138285 22.566354,50.5968717 C23.9952019,50.4586919 25.1080927,49.293364 25.1759784,47.8603353 C25.2384476,46.5258003 25.398051,45.2378063 25.7183411,43.9754278 C30.0283558,26.9793183 44.851253,25.7645632 44.851253,25.7645632 C42.185298,32.0248636 37.8770889,34.6712043 37.8770889,34.6712043 C52.090821,28.8932702 56.5185522,22.6329698 56.5185522,22.6329698 C65.9781244,35.7542738 79.0118022,41.4474239 86.539523,43.7806052 C86.759429,45.1292107 87.036749,46.4579732 87.1042735,47.8603353 C87.1721592,49.293364 88.2846889,50.4586919 89.7138979,50.5968717 C89.887945,50.6138285 90.2443445,50.6502675 90.4303078,50.7123221 C92.9886568,51.6034553 94.5135556,56.4336133 92.6044531,61.9323015 Z" id="Shape"></path>
                    </g>
                </g>
            </g>
            <path d="M402.11567,206.167403 L402.11567,274.926824" id="Line" stroke="#4BAB3E" stroke-width="3.79999995" stroke-linecap="round" stroke-dasharray="7.599999904632568"></path>
            <path d="M402.11567,511.912595 L402.11567,580.672016" id="Line-Copy" stroke="#4BAB3E" stroke-width="3.79999995" stroke-linecap="round" stroke-dasharray="7.599999904632568"></path>
            <path d="M748.087368,359.989518 L748.087368,428.748939" id="Line-Copy" stroke="#4BAB3E" stroke-width="3.79999995" stroke-linecap="round" stroke-dasharray="7.599999904632568"></path>
            <path d="M56.1439715,369.48471 L56.1439715,438.244132" id="Line-Copy" stroke="#4BAB3E" stroke-width="3.79999995" stroke-linecap="round" stroke-dasharray="7.599999904632568"></path>
            <path d="M141.620283,288.683052 L322.209906,380.757212" id="Line-2" stroke="#4BAB3E" stroke-width="3.79999995" stroke-linecap="round" stroke-dasharray="7.599999904632568"></path>
            <path d="M141.620283,636.207091 L322.209906,728.28125" id="Line-2" stroke="#4BAB3E" stroke-width="3.79999995" stroke-linecap="round" stroke-dasharray="7.599999904632568"></path>
            <path d="M141.620283,455.798437 L322.209906,547.872596" id="Line-2" stroke="#4BAB3E" stroke-width="3.79999995" stroke-linecap="round" stroke-dasharray="7.599999904632568" transform="translate(231.915094, 502.295673) scale(1, -1) translate(-231.915094, -502.295673) "></path>
            <path d="M141.620283,87.3849755 L322.209906,179.459135" id="Line-2" stroke="#4BAB3E" stroke-width="3.79999995" stroke-linecap="round" stroke-dasharray="7.599999904632568" transform="translate(231.915094, 133.882212) scale(1, -1) translate(-231.915094, -133.882212) "></path>
            <path d="M474.285377,288.683052 L654.875,380.757212" id="Line-2" stroke="#4BAB3E" stroke-width="3.79999995" stroke-linecap="round" stroke-dasharray="7.599999904632568" transform="translate(564.580189, 335.180288) scale(-1, 1) translate(-564.580189, -335.180288) "></path>
            <path d="M474.285377,636.207091 L654.875,728.28125" id="Line-2" stroke="#4BAB3E" stroke-width="3.79999995" stroke-linecap="round" stroke-dasharray="7.599999904632568" transform="translate(564.580189, 682.704327) scale(-1, 1) translate(-564.580189, -682.704327) "></path>
            <path d="M474.285377,455.798437 L654.875,547.872596" id="Line-2" stroke="#4BAB3E" stroke-width="3.79999995" stroke-linecap="round" stroke-dasharray="7.599999904632568" transform="translate(564.580189, 502.295673) scale(-1, -1) translate(-564.580189, -502.295673) "></path>
            <path d="M474.285377,87.3849755 L654.875,179.459135" id="Line-2" stroke="#4BAB3E" stroke-width="3.79999995" stroke-linecap="round" stroke-dasharray="7.599999904632568" transform="translate(564.580189, 133.882212) scale(-1, -1) translate(-564.580189, -133.882212) "></path>
        </g>
    </g>
</svg>