<?xml version="1.0" encoding="UTF-8"?>
<svg width="32px" height="32px" viewBox="0 0 32 32" version="1.1" xmlns="http://www.w3.org/2000/svg" xmlns:xlink="http://www.w3.org/1999/xlink">
    <!-- Generator: Sketch 53.2 (72643) - https://sketchapp.com -->
    <title>sort-down copy</title>
    <desc>Created with Sketch.</desc>
    <g id="sort-down-copy" stroke="none" stroke-width="1" fill="none" fill-rule="evenodd">
        <g id="sort-down" transform="translate(8.000000, 11.000000)" fill="#CCCCCC" fill-rule="nonzero">
            <path d="M15.6688055,0.384156627 C15.4714539,0.16626506 15.2375154,0.0574096386 14.9672082,0.0574096386 L0.997897611,0.0574096386 C0.727481229,0.0574096386 0.493706485,0.16626506 0.296191126,0.384156627 C0.0986757679,0.602289157 0,0.860180723 0,1.15831325 C0,1.45638554 0.0986757679,1.71427711 0.296191126,1.93222892 L7.28087372,9.63746988 C7.47860751,9.85536145 7.71238225,9.96445783 7.9825802,9.96445783 C8.25277816,9.96445783 8.48677133,9.85536145 8.68412287,9.63746988 L15.6688055,1.93216867 C15.8661024,1.71427711 15.9651604,1.45638554 15.9651604,1.15825301 C15.9651604,0.860180723 15.8661024,0.602289157 15.6688055,0.384156627 Z" id="Path"></path>
        </g>
    </g>
</svg>