<?xml version="1.0" encoding="UTF-8"?>
<svg width="194px" height="194px" viewBox="0 0 194 194" version="1.1" xmlns="http://www.w3.org/2000/svg" xmlns:xlink="http://www.w3.org/1999/xlink">
    <!-- Generator: Sketch 52.5 (67469) - http://www.bohemiancoding.com/sketch -->
    <title>Group 10</title>
    <desc>Created with Sketch.</desc>
    <defs>
        <rect id="path-1" x="0" y="0" width="100" height="100" rx="50"></rect>
        <filter x="-74.5%" y="-72.5%" width="249.0%" height="249.0%" filterUnits="objectBoundingBox" id="filter-2">
            <feOffset dx="0" dy="2" in="SourceAlpha" result="shadowOffsetOuter1"></feOffset>
            <feGaussianBlur stdDeviation="24.5" in="shadowOffsetOuter1" result="shadowBlurOuter1"></feGaussianBlur>
            <feColorMatrix values="0 0 0 0 0   0 0 0 0 0   0 0 0 0 0  0 0 0 0.102496603 0" type="matrix" in="shadowBlurOuter1"></feColorMatrix>
        </filter>
    </defs>
    <g id="Page-1" stroke="none" stroke-width="1" fill="none" fill-rule="evenodd">
        <g id="draft-v1" transform="translate(-345.000000, -3503.000000)">
            <g id="Group-12" transform="translate(237.000000, 3068.000000)">
                <g id="Group-10" transform="translate(155.000000, 480.000000)">
                    <path d="M28.671875,124.828125 C28.671875,125.85938 28.300785,126.671872 27.5585938,127.265625 C26.8164025,127.859378 25.7838608,128.15625 24.4609375,128.15625 C23.2421814,128.15625 22.1640672,127.927086 21.2265625,127.46875 L21.2265625,125.21875 C21.9973997,125.562502 22.6497369,125.804687 23.1835938,125.945312 C23.7174506,126.085938 24.205727,126.15625 24.6484375,126.15625 C25.1796902,126.15625 25.5872382,126.054689 25.8710938,125.851562 C26.1549493,125.648436 26.296875,125.346356 26.296875,124.945312 C26.296875,124.721353 26.2343756,124.522136 26.109375,124.347656 C25.9843744,124.173176 25.8007825,124.005209 25.5585938,123.84375 C25.316405,123.682291 24.8229204,123.424481 24.078125,123.070312 C23.3802048,122.742186 22.8567726,122.427085 22.5078125,122.125 C22.1588524,121.822915 21.8802094,121.471356 21.671875,121.070312 C21.4635406,120.669269 21.359375,120.200524 21.359375,119.664062 C21.359375,118.653641 21.7018195,117.859378 22.3867188,117.28125 C23.071618,116.703122 24.0182231,116.414062 25.2265625,116.414062 C25.8203155,116.414062 26.3867161,116.484374 26.9257812,116.625 C27.4648464,116.765626 28.0286429,116.96354 28.6171875,117.21875 L27.8359375,119.101562 C27.2265595,118.851561 26.7226582,118.677084 26.3242188,118.578125 C25.9257793,118.479166 25.5338561,118.429688 25.1484375,118.429688 C24.6901019,118.429688 24.3385429,118.536457 24.09375,118.75 C23.8489571,118.963543 23.7265625,119.242186 23.7265625,119.585938 C23.7265625,119.79948 23.7760412,119.985676 23.875,120.144531 C23.9739588,120.303386 24.1315093,120.457031 24.3476562,120.605469 C24.5638032,120.753907 25.0755168,121.020831 25.8828125,121.40625 C26.9505262,121.916669 27.6822897,122.428383 28.078125,122.941406 C28.4739603,123.45443 28.671875,124.08333 28.671875,124.828125 Z M34.234375,126.257812 C34.6510437,126.257812 35.1510387,126.166668 35.734375,125.984375 L35.734375,127.757812 C35.140622,128.023439 34.4114627,128.15625 33.546875,128.15625 C32.5937452,128.15625 31.8997418,127.915367 31.4648438,127.433594 C31.0299457,126.951821 30.8125,126.229171 30.8125,125.265625 L30.8125,121.054688 L29.671875,121.054688 L29.671875,120.046875 L30.984375,119.25 L31.671875,117.40625 L33.1953125,117.40625 L33.1953125,119.265625 L35.640625,119.265625 L35.640625,121.054688 L33.1953125,121.054688 L33.1953125,125.265625 C33.1953125,125.604168 33.2903636,125.854166 33.4804688,126.015625 C33.6705739,126.177084 33.9218734,126.257812 34.234375,126.257812 Z M43.046875,128 L42.5859375,126.8125 L42.5234375,126.8125 C42.1223938,127.317711 41.7096375,127.667968 41.2851562,127.863281 C40.860675,128.058595 40.3072951,128.15625 39.625,128.15625 C38.7864541,128.15625 38.1263045,127.916669 37.6445312,127.4375 C37.162758,126.958331 36.921875,126.276046 36.921875,125.390625 C36.921875,124.463537 37.2460905,123.77995 37.8945312,123.339844 C38.542972,122.899737 39.5208268,122.65625 40.828125,122.609375 L42.34375,122.5625 L42.34375,122.179688 C42.34375,121.294266 41.8906295,120.851562 40.984375,120.851562 C40.2864548,120.851562 39.4661505,121.062498 38.5234375,121.484375 L37.734375,119.875 C38.7395884,119.348956 39.8541605,119.085938 41.078125,119.085938 C42.2500059,119.085938 43.1484344,119.341143 43.7734375,119.851562 C44.3984406,120.361982 44.7109375,121.138016 44.7109375,122.179688 L44.7109375,128 L43.046875,128 Z M42.34375,123.953125 L41.421875,123.984375 C40.7291632,124.005208 40.2135434,124.130207 39.875,124.359375 C39.5364566,124.588543 39.3671875,124.937498 39.3671875,125.40625 C39.3671875,126.078128 39.7526003,126.414062 40.5234375,126.414062 C41.0755236,126.414062 41.5169254,126.25521 41.8476562,125.9375 C42.1783871,125.61979 42.34375,125.197919 42.34375,124.671875 L42.34375,123.953125 Z M49.453125,123.25 L50.4921875,121.921875 L52.9375,119.265625 L55.625,119.265625 L52.15625,123.054688 L55.8359375,128 L53.0859375,128 L50.5703125,124.460938 L49.546875,125.28125 L49.546875,128 L47.1640625,128 L47.1640625,115.84375 L49.546875,115.84375 L49.546875,121.265625 L49.421875,123.25 L49.453125,123.25 Z M60.703125,120.796875 C60.1979141,120.796875 59.8020848,120.95703 59.515625,121.277344 C59.2291652,121.597658 59.0651044,122.05208 59.0234375,122.640625 L62.3671875,122.640625 C62.3567708,122.05208 62.2031265,121.597658 61.90625,121.277344 C61.6093735,120.95703 61.2083359,120.796875 60.703125,120.796875 Z M61.0390625,128.15625 C59.6328055,128.15625 58.5338581,127.768233 57.7421875,126.992188 C56.9505169,126.216142 56.5546875,125.117195 56.5546875,123.695312 C56.5546875,122.231764 56.9205693,121.100264 57.6523438,120.300781 C58.3841182,119.501298 59.3958269,119.101562 60.6875,119.101562 C61.9218812,119.101562 62.8828091,119.453121 63.5703125,120.15625 C64.2578159,120.859379 64.6015625,121.830723 64.6015625,123.070312 L64.6015625,124.226562 L58.96875,124.226562 C58.9947918,124.903649 59.1953106,125.43229 59.5703125,125.8125 C59.9453144,126.19271 60.4713508,126.382812 61.1484375,126.382812 C61.6744818,126.382812 62.1718727,126.328126 62.640625,126.21875 C63.1093773,126.109374 63.5989558,125.934897 64.109375,125.695312 L64.109375,127.539062 C63.6927063,127.747397 63.2473982,127.902343 62.7734375,128.003906 C62.2994768,128.105469 61.7213576,128.15625 61.0390625,128.15625 Z M71.4140625,119.101562 C71.7369808,119.101562 72.0052073,119.125 72.21875,119.171875 L72.0390625,121.40625 C71.8463532,121.354166 71.6119805,121.328125 71.3359375,121.328125 C70.575517,121.328125 69.983075,121.523436 69.5585938,121.914062 C69.1341125,122.304689 68.921875,122.851559 68.921875,123.554688 L68.921875,128 L66.5390625,128 L66.5390625,119.265625 L68.34375,119.265625 L68.6953125,120.734375 L68.8125,120.734375 C69.0833347,120.244789 69.4492164,119.850262 69.9101562,119.550781 C70.3710961,119.251301 70.8723931,119.101562 71.4140625,119.101562 Z M79.8984375,125.40625 C79.8984375,126.302088 79.5872427,126.984373 78.9648438,127.453125 C78.3424448,127.921877 77.4114645,128.15625 76.171875,128.15625 C75.5364552,128.15625 74.9947939,128.113282 74.546875,128.027344 C74.0989561,127.941406 73.6796895,127.815105 73.2890625,127.648438 L73.2890625,125.679688 C73.731773,125.888022 74.230466,126.062499 74.7851562,126.203125 C75.3398465,126.343751 75.8281229,126.414062 76.25,126.414062 C77.1145877,126.414062 77.546875,126.164065 77.546875,125.664062 C77.546875,125.476562 77.4895839,125.324219 77.375,125.207031 C77.2604161,125.089843 77.0625014,124.957032 76.78125,124.808594 C76.4999986,124.660156 76.1250023,124.48698 75.65625,124.289062 C74.9843716,124.007811 74.490887,123.747397 74.1757812,123.507812 C73.8606755,123.268228 73.6315111,122.993491 73.4882812,122.683594 C73.3450514,122.373696 73.2734375,121.99219 73.2734375,121.539062 C73.2734375,120.763017 73.5742157,120.162763 74.1757812,119.738281 C74.7773468,119.3138 75.6302028,119.101562 76.734375,119.101562 C77.7864636,119.101562 78.8098909,119.330727 79.8046875,119.789062 L79.0859375,121.507812 C78.6484353,121.320312 78.2395852,121.166667 77.859375,121.046875 C77.4791648,120.927083 77.0911478,120.867188 76.6953125,120.867188 C75.992184,120.867188 75.640625,121.05729 75.640625,121.4375 C75.640625,121.651043 75.7539051,121.835937 75.9804688,121.992188 C76.2070324,122.148438 76.7031212,122.380207 77.46875,122.6875 C78.1510451,122.963543 78.6510401,123.221353 78.96875,123.460938 C79.2864599,123.700522 79.5208326,123.976561 79.671875,124.289062 C79.8229174,124.601564 79.8984375,124.973956 79.8984375,125.40625 Z" id="Stakers" fill="#2A2A2A"></path>
                    <g id="Group-8-Copy">
                        <g id="Rectangle" fill-rule="nonzero">
                            <use fill="black" fill-opacity="1" filter="url(#filter-2)" xlink:href="#path-1"></use>
                            <use fill="#FFFFFF" xlink:href="#path-1"></use>
                        </g>
                        <path d="M80.8908852,10.681237 C72.3870633,3.99091786 61.659596,0 50,0 L50,52.821438 L80.8908852,10.681237 Z" id="Path" fill="#5CB54B" fill-rule="nonzero"></path>
                        <rect id="Rectangle" fill="#F5F5F5" fill-rule="nonzero" x="10" y="10" width="80" height="80" rx="40"></rect>
                        <path d="M34.9140625,60 L31.2929688,60 L31.2929688,50.0859375 L31.328125,48.4570312 L31.3867188,46.6757812 C30.7851532,47.2773468 30.3671887,47.6718741 30.1328125,47.859375 L28.1640625,49.4414062 L26.4179688,47.2617188 L31.9375,42.8671875 L34.9140625,42.8671875 L34.9140625,60 Z M51.5429688,51.4335938 C51.5429688,54.4257962 51.0527393,56.6406178 50.0722656,58.078125 C49.091792,59.5156322 47.5820414,60.234375 45.5429688,60.234375 C43.5663964,60.234375 42.0761769,59.4921949 41.0722656,58.0078125 C40.0683544,56.5234301 39.5664062,54.3320457 39.5664062,51.4335938 C39.5664062,48.4101411 40.0546826,46.1816478 41.03125,44.7480469 C42.0078174,43.314446 43.5117086,42.5976562 45.5429688,42.5976562 C47.5195411,42.5976562 49.0136668,43.3476487 50.0253906,44.8476562 C51.0371144,46.3476637 51.5429688,48.5429543 51.5429688,51.4335938 Z M43.1640625,51.4335938 C43.1640625,53.5351668 43.3457013,55.0410111 43.7089844,55.9511719 C44.0722674,56.8613327 44.6835895,57.3164062 45.5429688,57.3164062 C46.386723,57.3164062 46.9960919,56.8554734 47.3710938,55.9335938 C47.7460956,55.0117141 47.9335938,53.5117291 47.9335938,51.4335938 C47.9335938,49.3320207 47.7441425,47.8222702 47.3652344,46.9042969 C46.9863262,45.9863235 46.3789104,45.5273438 45.5429688,45.5273438 C44.691402,45.5273438 44.0820331,45.9863235 43.7148438,46.9042969 C43.3476544,47.8222702 43.1640625,49.3320207 43.1640625,51.4335938 Z M56.0898438,48 C56.0898438,48.9921925 56.1777335,49.7324194 56.3535156,50.2207031 C56.5292978,50.7089868 56.812498,50.953125 57.203125,50.953125 C57.9531288,50.953125 58.328125,49.9687598 58.328125,48 C58.328125,46.0468652 57.9531288,45.0703125 57.203125,45.0703125 C56.812498,45.0703125 56.5292978,45.3105445 56.3535156,45.7910156 C56.1777335,46.2714868 56.0898438,47.0078075 56.0898438,48 Z M61.28125,47.9765625 C61.28125,49.7734465 60.9335972,51.1230424 60.2382812,52.0253906 C59.5429653,52.9277389 58.5234442,53.3789062 57.1796875,53.3789062 C55.8906186,53.3789062 54.8945348,52.9160203 54.1914062,51.9902344 C53.4882777,51.0644485 53.1367188,49.7265712 53.1367188,47.9765625 C53.1367188,44.4062321 54.4843615,42.6210938 57.1796875,42.6210938 C58.5000066,42.6210938 59.5136683,43.0839797 60.2207031,44.0097656 C60.9277379,44.9355515 61.28125,46.2578039 61.28125,47.9765625 Z M69.34375,42.8671875 L59.8398438,60 L57.0273438,60 L66.53125,42.8671875 L69.34375,42.8671875 Z M68.0898438,54.84375 C68.0898438,55.8359425 68.1777335,56.5761694 68.3535156,57.0644531 C68.5292978,57.5527368 68.812498,57.796875 69.203125,57.796875 C69.9531287,57.796875 70.328125,56.8125098 70.328125,54.84375 C70.328125,52.8906152 69.9531287,51.9140625 69.203125,51.9140625 C68.812498,51.9140625 68.5292978,52.1542945 68.3535156,52.6347656 C68.1777335,53.1152368 68.0898438,53.8515575 68.0898438,54.84375 Z M73.28125,54.8203125 C73.28125,56.6093839 72.9335972,57.9550736 72.2382812,58.8574219 C71.5429653,59.7597701 70.5234442,60.2109375 69.1796875,60.2109375 C67.8906186,60.2109375 66.8945348,59.7480515 66.1914062,58.8222656 C65.4882777,57.8964797 65.1367188,56.5625087 65.1367188,54.8203125 C65.1367188,51.2499821 66.4843615,49.4648438 69.1796875,49.4648438 C70.5000066,49.4648438 71.5136683,49.9277297 72.2207031,50.8535156 C72.9277379,51.7793015 73.28125,53.1015539 73.28125,54.8203125 Z" id="10%" fill="#2A2A2A"></path>
                    </g>
                </g>
            </g>
        </g>
    </g>
</svg>