<?xml version="1.0" encoding="UTF-8"?>
<svg width="32px" height="32px" viewBox="0 0 32 32" version="1.1" xmlns="http://www.w3.org/2000/svg" xmlns:xlink="http://www.w3.org/1999/xlink">
    <!-- Generator: Sketch 52.5 (67469) - http://www.bohemiancoding.com/sketch -->
    <title>Combined Shape</title>
    <desc>Created with Sketch.</desc>
    <g id="Page-1" stroke="none" stroke-width="1" fill="none" fill-rule="evenodd">
        <g id="Artboard-Copy-4" transform="translate(-1101.000000, -636.000000)" fill="#FFFFFF" fill-rule="nonzero">
            <path d="M1117,668 C1108.16344,668 1101,660.836556 1101,652 C1101,643.163444 1108.16344,636 1117,636 C1125.83656,636 1133,643.163444 1133,652 C1133,660.836556 1125.83656,668 1117,668 Z M1125.49272,645.061831 C1125.63433,644.377705 1124.96839,643.807768 1124.32394,644.061522 L1107.39322,650.728694 C1106.84483,650.944666 1106.87811,651.739894 1107.44255,651.908315 L1111.74483,653.192133 L1113.35044,658.34054 C1113.51816,658.878308 1114.19255,659.04134 1114.58294,658.638533 L1116.80733,656.343459 L1121.17172,659.580792 C1121.70583,659.976975 1122.46644,659.682631 1122.60211,659.027305 L1125.49272,645.061831 Z M1121.95728,646.82941 C1122.17089,646.695515 1122.38955,646.99261 1122.20128,647.160806 L1114.33705,654.188287 C1114.25866,654.25835 1114.20878,654.355305 1114.19711,654.460399 L1113.89433,657.180287 C1113.88444,657.268989 1113.76155,657.280722 1113.73539,657.195501 L1112.48966,653.139192 C1112.43261,652.95348 1112.507,652.752273 1112.6705,652.649817 L1121.95728,646.82941 Z" id="Combined-Shape"></path>
        </g>
    </g>
</svg>